<?xml version="1.0" standalone="no"?>
<!DOCTYPE svg PUBLIC "-//W3C//DTD SVG 20010904//EN"
 "http://www.w3.org/TR/2001/REC-SVG-20010904/DTD/svg10.dtd">
<svg version="1.0" xmlns="http://www.w3.org/2000/svg"
 width="1360.000000pt" height="1999.000000pt" viewBox="0 0 1360.000000 1999.000000"
 preserveAspectRatio="xMidYMid meet">

<g transform="translate(0.000000,1999.000000) scale(0.100000,-0.100000)"
fill="#000000" stroke="none">
<path d="M6805 18941 c-3 -5 -1 -12 5 -16 12 -7 30 2 30 16 0 12 -27 12 -35 0z"/>
<path d="M6880 18925 c-7 -13 -22 -27 -33 -31 -14 -4 -18 -12 -14 -32 5 -25
-10 -72 -23 -72 -4 0 -12 -11 -18 -25 -10 -22 -9 -25 8 -25 23 0 24 -4 10 -31
-6 -10 -19 -19 -28 -19 -10 0 -27 -7 -38 -15 -10 -8 -25 -15 -31 -15 -31 0
-125 -55 -134 -77 -5 -13 -19 -27 -31 -32 -27 -10 -39 -4 -18 9 9 6 10 10 3
10 -6 0 -15 -4 -18 -10 -3 -5 -17 -10 -31 -10 -18 0 -24 5 -24 22 0 19 -2 20
-17 6 -27 -22 -104 -48 -146 -48 -24 0 -40 -5 -43 -15 -8 -21 -69 -48 -91 -41
-17 5 -74 -17 -106 -41 -30 -23 -107 -44 -139 -38 -25 5 -38 2 -47 -9 -17 -21
-45 -21 -37 -1 8 22 -11 18 -23 -4 -6 -10 -33 -35 -60 -55 -28 -21 -59 -52
-71 -70 -11 -19 -31 -36 -43 -40 -13 -3 -50 -29 -82 -59 -33 -30 -79 -67 -102
-84 -23 -17 -61 -54 -83 -82 -50 -63 -99 -111 -114 -111 -12 0 -66 -64 -66
-78 0 -5 -20 -29 -45 -53 -25 -24 -45 -48 -45 -54 0 -5 -16 -27 -35 -48 -19
-21 -37 -47 -40 -58 -4 -10 -11 -19 -16 -19 -6 0 -7 9 -3 22 6 20 5 21 -9 9
-31 -25 -38 -6 -11 29 14 19 30 46 35 59 7 16 15 22 28 18 13 -3 34 11 70 48
53 55 101 119 101 135 0 17 -26 11 -46 -11 -27 -30 -72 -51 -94 -44 -13 4 -25
-3 -43 -27 -36 -49 -40 -59 -25 -56 7 2 16 11 20 21 12 29 26 19 26 -18 0 -32
-3 -35 -28 -35 -40 0 -86 -29 -107 -67 -10 -18 -24 -33 -31 -33 -8 0 -27 -9
-44 -21 -38 -27 -44 -19 -24 31 15 38 62 103 144 197 21 23 48 57 61 75 13 18
46 44 73 56 35 17 57 38 82 75 37 59 61 81 75 72 6 -3 13 5 17 19 3 13 21 48
40 77 19 29 34 62 34 74 -1 18 -3 17 -24 -9 -13 -15 -29 -45 -36 -66 -13 -39
-47 -76 -93 -99 -15 -8 -30 -26 -34 -40 -3 -14 -10 -32 -16 -38 -11 -15 -73
-17 -82 -3 -10 16 -41 12 -80 -10 -20 -11 -46 -20 -60 -20 -13 0 -27 -4 -30
-10 -3 -5 -10 -10 -15 -10 -13 0 0 30 24 57 25 29 57 85 51 91 -5 5 -109 -83
-180 -153 -65 -64 -129 -115 -145 -115 -7 0 -27 -16 -46 -35 -28 -30 -49 -41
-86 -44 -5 -1 -8 -6 -8 -12 0 -8 5 -8 15 1 13 10 15 9 15 -9 0 -19 3 -20 21
-10 12 6 35 26 51 45 17 19 34 34 40 34 17 0 -3 -44 -33 -73 -15 -15 -32 -33
-36 -40 -12 -20 -91 -58 -98 -47 -4 6 -18 4 -36 -5 -16 -9 -34 -13 -39 -10
-16 10 -22 65 -10 100 6 20 13 50 15 68 2 17 6 47 10 65 7 31 1 39 -21 24 -17
-12 -52 -104 -59 -159 -7 -53 -20 -68 -32 -37 -5 13 -10 9 -27 -17 -16 -26
-28 -34 -50 -34 -24 0 -29 5 -32 28 -1 16 -9 36 -16 44 -16 20 -36 91 -48 173
-4 35 -15 69 -23 75 -19 14 -37 50 -37 73 0 11 -7 25 -16 33 -23 19 -55 87
-44 94 5 3 22 3 37 -1 l28 -7 -30 33 c-16 18 -48 40 -71 50 -23 10 -61 37 -85
60 -73 69 -72 69 -63 25 9 -49 27 -83 53 -101 12 -9 21 -21 21 -28 0 -7 10
-24 23 -38 48 -55 57 -68 44 -68 -8 0 -8 -3 2 -9 7 -5 10 -14 6 -20 -4 -7 3
-37 16 -67 12 -31 25 -51 29 -44 9 14 30 -33 30 -68 0 -15 8 -48 17 -75 15
-43 16 -59 4 -165 -7 -64 -15 -153 -16 -196 -4 -75 -6 -81 -39 -115 -20 -20
-36 -42 -36 -47 0 -6 -9 -19 -21 -30 -12 -10 -27 -31 -35 -46 -15 -29 -73 -51
-122 -46 -15 1 -53 -6 -86 -15 -68 -21 -86 -17 -86 17 0 33 -12 28 -110 -40
-80 -55 -233 -134 -261 -134 -19 0 -34 -16 -43 -47 -6 -17 -3 -23 8 -23 23 0
20 -12 -11 -43 -16 -15 -39 -38 -51 -51 -32 -33 -54 -24 -50 22 2 28 9 38 35
51 24 12 34 25 39 49 4 18 4 35 1 38 -9 10 -119 -60 -141 -89 -20 -28 -20 -29
-2 -42 13 -10 17 -21 12 -38 -9 -36 49 -86 91 -80 24 4 35 0 44 -15 10 -16 17
-18 31 -11 10 5 18 17 18 25 0 12 -6 15 -25 10 -18 -5 -27 -2 -31 8 -7 18 0
31 51 92 86 102 97 114 110 114 7 0 23 9 37 19 13 11 37 23 51 26 15 4 27 11
27 16 0 9 59 49 73 49 4 0 7 -9 7 -19 0 -36 41 -30 82 11 36 37 73 49 94 29 5
-5 30 -6 59 -1 87 15 94 14 86 -17 -8 -29 -21 -39 -63 -48 -18 -3 -30 -14 -34
-30 -9 -36 -28 -49 -52 -34 -16 10 -26 10 -50 0 -17 -7 -29 -18 -26 -25 6 -15
-43 -39 -58 -30 -6 4 -8 24 -4 50 5 39 3 44 -14 44 -16 0 -20 -7 -20 -36 0
-49 -27 -103 -55 -110 -27 -7 -60 -40 -69 -71 -4 -11 -18 -24 -31 -27 -14 -4
-25 -12 -25 -20 0 -7 -7 -19 -15 -26 -8 -7 -32 -44 -53 -81 -20 -38 -43 -69
-49 -69 -7 0 -13 -6 -13 -14 0 -8 -9 -17 -20 -21 -23 -7 -66 -95 -89 -183 -21
-74 -43 -94 -113 -98 -48 -2 -98 -25 -98 -44 0 -17 32 -11 46 8 8 10 13 12 14
5 0 -9 19 -13 60 -13 67 0 71 -5 49 -71 -17 -51 -29 -59 -93 -63 -32 -2 -62
-9 -65 -14 -11 -17 -47 -31 -60 -23 -9 6 -10 11 -2 15 16 10 14 36 -3 36 -20
0 -27 29 -28 105 0 36 -4 65 -9 65 -5 0 -9 5 -9 10 0 14 27 13 32 -1 2 -7 11
-5 23 7 17 17 17 19 2 22 -9 2 -31 -4 -49 -12 -55 -28 -83 -20 -68 20 9 24 -2
34 -15 14 -3 -5 -15 -10 -26 -10 -10 0 -19 -6 -19 -14 0 -15 -24 -28 -34 -19
-3 3 2 19 11 34 12 20 14 32 7 39 -7 7 -21 -2 -43 -30 -17 -22 -38 -40 -46
-40 -13 0 -35 55 -35 87 0 18 -21 27 -30 13 -11 -17 -30 -3 -30 21 0 30 -24
17 -28 -15 -2 -16 -8 -25 -15 -23 -17 6 -10 49 11 66 15 11 12 12 -23 6 -22
-4 -41 -8 -43 -9 -1 -2 4 -19 12 -38 8 -19 13 -44 10 -55 -5 -16 -1 -21 12
-20 15 2 20 -8 25 -43 5 -33 3 -47 -7 -53 -9 -5 -14 -26 -14 -57 0 -26 -3 -50
-7 -52 -11 -4 -43 -76 -43 -95 0 -10 6 -14 20 -10 15 4 20 0 20 -17 0 -12 7
-32 16 -44 8 -12 12 -22 8 -22 -5 0 -3 -5 4 -12 7 -7 12 -20 12 -29 0 -10 4
-19 9 -21 14 -4 23 -156 11 -163 -12 -8 -42 58 -38 83 2 10 -5 18 -17 20 -17
3 -18 1 -5 -8 11 -9 12 -13 3 -17 -15 -6 -17 -49 -3 -58 20 -13 9 -25 -18 -19
l-27 5 24 -20 c14 -13 21 -27 17 -36 -8 -21 21 -31 45 -17 26 17 39 15 39 -5
0 -10 8 -48 17 -85 15 -57 22 -69 45 -79 15 -6 28 -15 28 -20 0 -4 9 -17 20
-27 17 -16 19 -24 11 -45 -6 -14 -8 -67 -5 -119 11 -185 11 -223 -1 -243 -6
-11 -17 -42 -24 -70 -7 -27 -15 -56 -17 -63 -3 -10 1 -10 18 -1 19 10 20 9 14
-12 -4 -13 -10 -34 -13 -46 -4 -15 -13 -23 -28 -23 -20 0 -52 -42 -47 -63 6
-23 -22 -89 -59 -137 -22 -30 -52 -79 -66 -109 -23 -48 -24 -57 -14 -92 7 -21
17 -39 24 -39 16 0 50 -168 50 -250 0 -50 -9 -92 -41 -185 -43 -123 -48 -145
-34 -145 5 0 16 26 26 58 20 62 52 122 67 122 12 0 12 -46 -1 -89 -11 -41 -3
-59 15 -34 16 22 15 23 44 -50 18 -46 22 -70 18 -115 -25 -265 -28 -330 -23
-424 6 -115 22 -185 62 -268 14 -29 23 -55 20 -58 -3 -3 0 -12 6 -20 7 -8 16
-40 20 -71 3 -31 14 -96 23 -146 9 -49 19 -112 22 -140 5 -44 35 -104 56 -113
4 -2 7 -10 7 -19 0 -17 26 -77 50 -113 14 -21 39 -115 56 -208 3 -13 9 -20 15
-17 5 4 7 16 4 28 -6 21 -5 21 6 2 7 -10 13 -62 15 -115 1 -52 5 -120 8 -151
l6 -56 -50 -22 c-37 -16 -50 -27 -50 -42 0 -11 5 -17 10 -14 6 3 19 3 31 0 15
-5 18 -12 13 -27 -5 -18 -3 -20 15 -15 18 4 21 2 16 -14 -4 -13 -1 -21 12 -25
10 -3 26 -10 35 -15 10 -5 25 -6 34 -2 12 4 15 3 10 -6 -5 -7 6 -17 31 -27 21
-9 46 -23 56 -32 11 -9 32 -17 47 -18 53 -3 100 -15 100 -26 0 -7 5 -6 15 2
23 19 35 2 35 -53 0 -53 18 -211 28 -237 3 -8 6 -30 8 -48 2 -19 9 -41 16 -49
15 -18 22 -183 7 -183 -5 0 -15 11 -21 25 -6 14 -16 25 -21 25 -6 0 -18 7 -28
16 -25 22 -49 11 -49 -23 0 -15 -7 -41 -15 -56 -14 -27 -13 -30 17 -58 42 -38
91 -40 114 -4 9 14 20 25 24 25 9 0 25 -39 40 -97 6 -24 17 -43 24 -43 24 0
36 75 47 290 8 156 20 271 45 420 32 187 43 243 73 366 6 23 17 101 26 174 9
73 18 137 22 143 3 6 5 26 5 46 -3 54 19 130 39 136 16 6 35 70 31 109 -1 10
4 24 12 30 9 6 20 23 25 38 9 23 8 26 -7 22 -14 -5 -15 -4 -2 5 8 6 15 21 15
33 0 17 7 24 23 26 19 3 23 8 18 25 -3 12 -6 25 -6 29 0 4 -7 5 -15 2 -22 -9
-18 4 10 32 20 20 24 33 22 60 -3 19 -7 37 -10 41 -10 10 -35 -16 -41 -43 -4
-14 -11 -22 -17 -18 -7 4 -7 9 -2 13 6 3 13 22 17 42 6 32 9 36 31 31 14 -2
33 -1 42 3 16 6 16 8 -6 26 -19 16 -21 20 -7 25 9 3 16 15 16 26 0 14 5 18 15
14 8 -3 15 -1 15 4 0 6 -7 10 -15 10 -18 0 -20 16 -2 24 6 3 2 3 -9 1 -18 -5
-21 -2 -17 19 5 23 7 24 27 11 18 -12 24 -12 41 1 13 10 15 14 5 12 -17 -3
-60 36 -60 55 0 8 3 8 8 1 4 -6 15 -13 25 -17 14 -5 17 -3 14 11 -3 9 -8 34
-11 54 -6 31 -4 37 14 43 11 3 20 12 20 20 0 18 51 30 61 14 8 -13 39 -5 39
11 0 5 -4 10 -9 10 -5 0 -11 9 -14 19 -3 14 -1 18 10 14 11 -4 14 -2 11 8 -3
8 -13 13 -22 13 -10 -1 -16 6 -16 19 0 20 1 20 25 -3 14 -13 25 -31 25 -41 0
-10 5 -21 10 -24 6 -3 10 -15 10 -27 0 -18 2 -18 28 9 15 15 44 39 64 53 21
14 38 28 38 33 0 4 7 7 15 7 8 0 15 -4 15 -8 0 -11 -73 -77 -109 -98 -23 -14
-31 -26 -31 -47 0 -30 -53 -151 -70 -162 -6 -3 -10 -27 -10 -53 0 -30 -7 -58
-20 -77 -11 -16 -20 -38 -20 -47 0 -10 -4 -18 -10 -18 -15 0 -12 -27 5 -44 19
-18 19 -35 0 -60 -39 -51 7 -48 65 4 24 21 47 37 52 34 4 -3 29 17 56 44 45
45 92 72 92 51 0 -5 -4 -9 -8 -9 -4 0 -16 -14 -26 -31 -23 -38 -8 -62 25 -41
11 7 24 10 28 7 5 -3 11 1 14 9 3 7 23 16 44 20 48 9 94 26 112 43 7 8 21 11
31 8 22 -7 37 13 16 21 -13 5 -13 8 -2 20 27 26 196 57 196 35 0 -6 -21 -20
-47 -31 -50 -22 -98 -70 -69 -70 8 0 27 5 42 10 35 14 39 8 19 -23 -12 -18
-28 -26 -65 -31 -27 -4 -51 -10 -54 -15 -3 -4 -18 -6 -33 -4 -29 5 -74 -29
-55 -41 13 -7 82 13 82 24 0 16 42 11 54 -5 10 -14 18 -12 65 11 29 15 56 35
58 45 5 19 40 36 50 25 3 -3 14 4 24 15 10 12 27 19 40 17 30 -4 37 -28 9 -28
-11 0 -34 -7 -51 -15 -16 -9 -34 -13 -39 -10 -6 3 -10 -3 -10 -14 0 -11 -6
-25 -12 -31 -72 -61 -99 -90 -85 -90 10 0 17 4 17 8 0 10 50 35 57 28 10 -10
-27 -63 -54 -76 -15 -8 -36 -21 -46 -29 -9 -8 -20 -12 -23 -8 -5 5 -67 -54
-104 -99 -20 -24 -55 -97 -52 -107 1 -4 -4 -10 -12 -13 -12 -5 -13 -9 -3 -25
10 -16 9 -21 -2 -28 -9 -6 -10 -11 -2 -15 16 -10 14 -26 -3 -26 -12 0 -14 -11
-11 -50 2 -27 0 -50 -5 -50 -4 0 -6 -9 -3 -20 3 -11 1 -20 -5 -20 -6 0 -9 -9
-7 -20 2 -11 1 -20 -3 -20 -4 0 -13 -9 -19 -19 -10 -16 -9 -27 3 -56 8 -20 12
-40 9 -45 -4 -6 1 -10 10 -10 11 0 15 -6 10 -19 -3 -12 0 -21 10 -25 9 -3 13
-2 10 3 -3 5 -1 12 4 16 6 3 15 -4 21 -15 7 -13 18 -19 26 -16 10 4 14 0 12
-12 -4 -26 43 -16 125 26 4 2 7 -4 7 -12 0 -9 -7 -19 -15 -22 -25 -10 -17 -34
11 -34 14 0 23 -4 19 -10 -3 -5 -2 -10 4 -10 5 0 11 5 13 11 2 7 13 9 27 4 18
-5 20 -9 10 -16 -14 -8 -15 -8 37 -24 9 -3 23 3 31 12 10 13 16 15 19 6 3 -7
10 -13 15 -13 6 0 7 5 4 10 -3 6 -2 10 4 10 16 0 24 -22 11 -30 -7 -5 4 -8 26
-8 48 -1 126 -10 131 -15 2 -2 4 -21 5 -41 1 -31 4 -37 22 -34 14 2 20 9 18
21 -2 9 2 17 7 17 5 0 11 -10 13 -22 2 -18 9 -22 31 -20 15 1 27 -2 27 -8 0
-5 -12 -10 -26 -10 -14 0 -23 -4 -19 -10 3 -5 12 -7 20 -4 7 3 25 -2 39 -11
14 -10 32 -15 41 -12 8 4 17 2 20 -3 3 -5 12 -7 20 -3 9 3 22 0 29 -6 10 -8
16 -9 21 -1 10 15 23 12 28 -7 4 -17 5 -17 6 0 0 9 8 17 16 17 12 0 15 -9 13
-37 -3 -35 -1 -38 22 -35 14 1 45 3 69 2 24 0 49 3 55 7 6 4 23 6 38 4 16 -1
28 1 28 6 0 5 8 9 18 10 58 5 111 17 107 23 -3 4 14 11 38 15 67 11 100 11
104 -1 4 -12 -22 -23 -72 -31 -16 -3 -33 -10 -37 -16 -10 -16 7 -31 23 -21 8
4 28 7 45 5 22 -1 33 3 38 14 3 9 10 14 15 10 5 -3 12 -1 16 5 10 16 38 12 32
-4 -6 -16 44 -30 53 -15 3 5 16 7 28 4 12 -2 46 5 76 16 31 10 67 19 80 19 14
0 28 5 32 11 3 6 19 9 35 7 16 -3 29 -1 29 4 0 5 9 7 20 3 23 -7 60 10 60 28
0 15 56 38 74 31 7 -3 18 7 26 21 7 14 17 25 22 25 4 0 8 5 8 10 0 6 9 21 21
33 11 12 30 41 41 64 13 25 29 43 38 43 9 0 25 16 36 35 10 19 22 35 27 35 4
0 14 15 22 32 10 25 10 35 2 40 -8 5 -6 8 6 8 20 0 22 11 6 27 -9 9 -5 14 14
18 23 6 25 10 16 32 -5 13 -6 30 -2 36 4 7 6 20 4 31 -1 10 1 16 6 13 4 -3 8
8 9 24 1 16 -3 29 -7 29 -5 0 -9 7 -9 16 0 11 6 15 20 11 13 -3 20 0 20 9 0 8
-6 14 -14 14 -8 0 -18 5 -22 12 -5 8 0 9 14 6 22 -6 30 6 12 17 -5 3 -7 12 -3
20 3 8 0 15 -6 15 -6 0 -8 7 -5 15 3 8 -1 29 -10 46 -9 18 -16 40 -16 50 0 10
-4 21 -10 24 -5 3 -12 28 -16 55 -4 28 -11 50 -15 50 -5 0 -7 11 -3 25 4 15 1
32 -6 41 -10 11 -10 18 -2 26 9 9 7 17 -6 31 -16 19 -16 20 9 14 33 -8 40 -1
27 28 -7 15 -8 52 -3 100 6 65 10 78 28 85 l22 9 -21 0 c-23 1 -40 36 -23 47
13 7 1 24 -17 24 -8 0 -19 -11 -24 -24 -10 -26 -28 -42 -38 -32 -3 4 -7 34 -9
68 -2 34 -5 64 -8 66 -3 3 -13 -3 -24 -12 -18 -17 -20 -16 -45 17 -14 19 -26
39 -26 45 0 6 -24 26 -54 43 -30 18 -53 36 -50 41 3 4 -10 14 -28 21 -28 12
-36 12 -55 0 -17 -11 -26 -12 -43 -3 -13 7 -40 9 -64 6 -22 -3 -48 -2 -56 4
-13 8 -13 10 1 10 10 0 16 8 15 23 -1 25 2 25 -119 13 -72 -7 -91 -6 -105 6
-12 10 -33 14 -67 11 -55 -4 -95 11 -95 37 0 25 -9 30 -36 20 -18 -7 -24 -6
-24 5 0 15 34 38 42 29 3 -3 6 7 6 21 0 21 -5 25 -29 25 -16 0 -38 -9 -48 -19
-23 -23 -74 -52 -53 -30 27 29 9 57 -32 50 -24 -5 -66 13 -71 30 -4 10 1 33 9
51 9 17 16 39 16 49 0 22 21 69 30 69 4 0 14 14 21 32 7 18 20 40 29 49 97
105 141 166 147 206 6 35 5 37 -10 24 -10 -7 -26 -32 -37 -55 -37 -77 -60
-110 -86 -124 -26 -14 -49 -8 -26 7 7 4 10 15 6 24 -4 11 6 28 30 51 36 33 65
96 45 96 -5 0 -9 -4 -9 -10 0 -5 -4 -10 -10 -10 -17 0 -11 32 16 77 14 24 22
48 19 53 -10 15 23 24 40 10 12 -10 15 -7 21 14 8 35 -5 54 -22 31 -8 -10 -17
-15 -21 -11 -4 4 -2 11 5 15 7 4 15 32 17 62 3 30 8 78 13 107 5 28 7 111 5
183 -3 118 -2 131 12 125 9 -3 21 -6 26 -6 19 0 8 -31 -13 -39 -20 -8 -21 -10
-5 -16 13 -5 17 -19 17 -54 1 -60 15 -122 32 -132 10 -7 11 -12 1 -29 -15 -24
-17 -41 -2 -20 7 11 9 5 7 -25 -4 -57 22 -54 37 5 8 35 8 50 -3 66 -27 44 -33
136 -17 250 8 59 15 109 15 112 0 2 9 2 20 -1 25 -7 25 8 1 40 -16 19 -18 30
-10 49 5 14 9 39 9 55 0 22 -5 29 -20 29 -11 0 -21 6 -22 13 -5 46 -8 67 -14
101 -5 29 -4 37 6 31 9 -6 9 -3 1 14 -9 17 -9 20 3 15 22 -8 30 33 12 61 -15
23 -7 43 13 31 15 -10 41 5 41 23 0 9 5 22 10 27 16 16 -9 64 -32 64 -10 0
-18 -5 -18 -11 0 -6 -10 -9 -22 -7 -19 2 -23 9 -22 36 1 23 -4 32 -15 33 -12
0 -11 3 4 9 19 8 19 9 -2 9 -19 1 -21 4 -13 31 5 17 5 30 1 30 -4 0 -7 18 -7
40 1 32 5 40 23 45 19 4 20 8 12 40 -6 21 -6 42 -1 52 5 10 8 27 6 38 -7 44
-7 81 0 94 5 8 -1 22 -15 37 -20 21 -21 26 -9 34 20 13 26 12 40 -5 7 -8 20
-15 29 -15 13 0 13 2 2 9 -17 11 -7 41 13 41 10 0 13 -6 9 -17 -4 -11 -3 -14
6 -9 7 5 18 1 26 -10 7 -11 17 -15 21 -11 5 4 3 11 -3 15 -17 11 -12 52 7 52
8 0 21 -9 28 -21 13 -20 14 -20 33 -3 14 12 16 20 8 30 -15 18 -7 59 11 59 8
0 14 -8 14 -17 -2 -22 14 -24 22 -3 4 8 18 15 33 15 20 0 23 2 11 10 -11 7 -8
10 16 10 36 0 77 -34 70 -58 -2 -9 -8 -37 -11 -62 l-7 -45 21 24 c12 13 27 21
35 18 9 -4 19 -1 23 6 5 7 25 25 46 40 20 15 44 42 53 58 14 28 17 29 32 16
12 -11 31 -14 60 -11 28 2 41 0 36 -7 -3 -6 -13 -8 -21 -4 -13 5 -14 3 -3 -10
9 -11 22 -14 37 -10 14 3 23 1 23 -6 0 -7 3 -10 6 -6 3 3 2 12 -2 19 -11 17
-13 48 -2 42 4 -3 8 -12 8 -21 0 -13 3 -13 15 -3 9 7 19 10 23 6 4 -4 -1 -12
-11 -17 -9 -6 -17 -15 -17 -21 0 -7 4 -7 13 0 8 7 17 7 30 -2 24 -19 22 -23
-18 -30 -33 -7 -42 -15 -29 -29 3 -3 27 1 52 9 26 7 68 14 93 14 25 0 49 3 53
7 12 13 78 31 92 26 19 -7 18 -20 -5 -45 -11 -11 -17 -26 -14 -34 9 -25 48
-13 48 15 0 8 8 15 18 17 9 1 17 -2 17 -7 0 -5 5 -9 10 -9 12 0 9 22 -4 31
-10 8 1 29 15 29 6 0 7 -4 4 -10 -3 -5 0 -7 8 -4 8 3 18 15 21 27 3 12 8 18
12 14 4 -4 18 0 31 8 19 13 27 13 46 3 12 -7 33 -14 47 -14 59 -3 60 -4 60
-30 0 -18 -4 -25 -14 -21 -9 4 -16 -3 -20 -19 -4 -15 -11 -22 -18 -18 -6 4 -8
3 -4 -4 4 -8 17 -6 44 4 26 10 32 11 21 2 -9 -7 -14 -18 -12 -23 2 -6 -17 -28
-42 -48 -25 -21 -45 -45 -45 -52 0 -24 9 -18 65 39 40 42 57 53 74 49 24 -6
29 -23 7 -23 -16 0 -31 -18 -23 -26 7 -7 46 17 73 44 27 28 44 28 37 1 -6 -20
-3 -21 30 -15 29 5 37 4 37 -7 0 -17 28 -42 37 -34 3 4 6 20 5 37 0 21 4 30
15 30 9 0 13 -6 9 -15 -3 -8 -1 -15 5 -15 6 0 9 -7 5 -15 -5 -14 -1 -16 34
-19 9 -1 14 -9 12 -21 -6 -43 -1 -119 9 -132 14 -16 36 -17 41 -1 3 8 9 8 24
0 10 -6 13 -12 7 -12 -21 0 -15 -20 6 -20 11 0 23 9 26 21 5 16 10 18 21 8 18
-15 43 -66 36 -73 -9 -10 -23 -6 -17 4 3 6 2 10 -4 10 -21 0 -22 -22 -2 -41
12 -11 21 -24 21 -30 0 -6 9 -8 19 -4 15 4 25 -2 38 -22 23 -35 74 -82 91 -83
6 0 12 -4 12 -10 0 -5 7 -7 15 -4 10 4 15 0 15 -15 0 -12 -3 -20 -7 -20 -21 3
-34 -2 -30 -13 2 -7 12 -13 23 -13 13 0 19 -7 19 -23 0 -13 7 -27 15 -32 10
-7 11 -10 3 -10 -25 0 -12 -28 17 -39 17 -5 30 -13 30 -17 0 -3 -7 -4 -15 -1
-22 9 -28 -10 -8 -25 10 -7 24 -25 32 -40 8 -16 20 -28 28 -28 7 0 13 -9 13
-20 0 -24 -4 -25 -36 -4 -34 23 -53 5 -28 -25 10 -11 23 -21 29 -21 6 0 23
-15 38 -33 15 -19 56 -48 93 -66 39 -19 68 -40 71 -51 3 -11 4 -21 2 -22 -5
-5 73 -78 83 -78 4 0 8 -7 8 -15 0 -8 7 -15 15 -15 9 0 12 -6 8 -16 -4 -11 0
-15 13 -14 35 4 43 0 37 -17 -4 -9 -2 -14 4 -10 5 3 15 -15 22 -41 11 -45 40
-72 75 -72 6 0 36 -17 67 -38 65 -43 110 -70 155 -94 40 -21 51 -38 33 -49
-11 -6 -10 -11 4 -27 9 -10 17 -23 17 -29 0 -5 11 -16 25 -23 13 -7 22 -16 20
-20 -2 -3 10 -19 27 -36 20 -19 33 -25 36 -16 2 6 13 12 25 12 21 -1 21 -2 4
-14 -13 -11 -15 -19 -8 -37 9 -21 10 -22 11 -4 1 18 2 18 16 -5 l15 -25 -6 25
c-5 19 -4 22 4 10 6 -8 11 -25 11 -37 0 -12 4 -24 9 -27 5 -3 7 -15 4 -26 -3
-10 2 -26 11 -35 9 -9 16 -12 16 -6 0 6 5 11 10 11 6 0 8 -10 4 -24 -7 -31 3
-66 21 -66 16 0 29 -27 26 -55 -2 -17 0 -17 8 -5 9 12 11 11 11 -6 0 -12 6
-24 14 -27 9 -4 12 -14 9 -26 -4 -15 3 -23 30 -34 43 -18 60 -41 24 -32 -34 9
-42 -9 -11 -24 19 -8 30 -9 39 -1 10 8 15 6 20 -11 5 -15 2 -26 -7 -33 -16
-12 -17 -54 -1 -64 5 -4 15 -17 22 -29 13 -26 31 -30 31 -8 0 8 4 15 9 15 12
0 9 -59 -3 -79 -5 -8 -4 -16 4 -21 8 -5 3 -9 -14 -12 -14 -3 -26 -2 -26 2 0 4
-16 7 -35 8 -19 1 -35 -3 -35 -8 0 -6 6 -10 13 -10 23 -1 65 -45 72 -77 5 -27
3 -32 -12 -31 -10 1 -29 -2 -43 -7 -24 -7 -24 -7 -7 12 26 30 20 40 -8 13 -20
-19 -27 -21 -39 -11 -17 15 -36 7 -36 -15 0 -9 -11 -14 -35 -14 -23 0 -38 -6
-42 -16 -3 -8 -12 -13 -19 -10 -8 3 -14 1 -14 -4 0 -15 -40 -12 -56 5 -9 8
-33 15 -56 15 -35 0 -40 -3 -35 -19 4 -16 -1 -18 -46 -17 -32 1 -51 -3 -54
-11 -3 -7 2 -13 11 -13 9 0 16 -4 16 -9 0 -10 -61 -34 -68 -26 -3 3 -21 -7
-41 -22 -35 -27 -41 -28 -154 -28 -76 0 -120 4 -125 11 -20 31 -128 34 -192 5
-25 -11 -53 -21 -63 -21 -19 0 -177 -117 -177 -131 0 -4 -26 -22 -57 -39 -34
-18 -65 -43 -75 -61 -10 -17 -23 -27 -28 -24 -7 4 -7 11 -2 18 5 7 12 25 16
41 4 17 16 42 27 57 10 15 19 32 19 38 0 6 14 33 31 61 32 52 33 69 4 53 -18
-10 -34 -39 -98 -170 -43 -88 -59 -146 -45 -168 3 -6 3 -28 -1 -50 -4 -22 -6
-61 -4 -87 1 -26 -2 -60 -8 -75 -6 -16 -13 -50 -16 -78 -5 -56 -9 -63 -25 -47
-16 16 -29 15 -22 -2 3 -7 -6 -35 -20 -61 -15 -26 -26 -56 -26 -66 0 -11 -4
-19 -10 -19 -5 0 -10 -10 -10 -23 0 -13 -4 -27 -10 -33 -6 -6 -6 -22 0 -43 5
-19 6 -39 2 -45 -10 -17 -11 -66 0 -72 5 -3 6 -14 3 -24 -3 -11 4 -26 20 -41
14 -14 25 -35 25 -51 0 -16 6 -28 13 -28 8 0 8 -3 -2 -9 -20 -13 -7 -39 25
-51 21 -9 25 -15 20 -35 -5 -19 -2 -25 11 -26 11 0 13 -3 6 -6 -22 -8 -14 -23
12 -23 14 0 35 -9 47 -20 12 -11 17 -20 10 -20 -19 0 7 -47 29 -53 11 -3 19
-14 19 -25 0 -15 5 -19 20 -15 16 4 19 2 14 -11 -4 -11 -2 -16 7 -14 9 2 13
-4 11 -14 -2 -10 2 -18 8 -18 13 0 44 -27 124 -107 34 -35 68 -63 75 -63 7 0
9 -5 6 -10 -3 -6 6 -15 21 -20 35 -14 58 3 43 32 -9 17 -8 19 10 13 14 -4 21
-2 21 7 0 10 2 10 9 -1 5 -8 20 -15 33 -17 12 -1 23 -3 23 -4 0 -1 17 -3 38
-5 20 -2 37 0 37 5 0 6 9 6 23 1 12 -5 21 -16 19 -24 -2 -11 3 -14 18 -10 15
4 19 2 14 -10 -4 -12 -1 -14 17 -10 15 4 26 0 35 -12 12 -16 14 -16 14 -3 0 9
12 24 27 33 23 16 25 16 20 1 -9 -22 9 -20 43 4 31 22 47 22 69 2 7 -7 19 -11
27 -8 7 3 15 0 18 -7 3 -9 5 -9 5 1 1 6 7 12 15 12 8 0 17 6 19 13 4 9 8 9 14
0 12 -16 63 -28 63 -14 0 6 -5 11 -12 11 -6 0 -9 3 -5 6 3 4 14 3 24 -1 30
-14 66 -12 85 4 18 15 126 22 135 9 7 -12 38 -9 69 7 16 8 31 11 34 6 8 -12
39 -21 44 -13 4 7 28 8 79 4 10 -1 15 -7 11 -13 -4 -8 0 -7 15 1 12 6 27 23
33 36 12 25 12 25 20 5 7 -21 28 -29 28 -12 0 5 9 7 20 4 16 -4 20 0 21 23 0
16 4 38 9 49 7 15 9 8 11 -30 1 -31 4 -39 6 -22 4 27 26 37 38 17 3 -5 13 -10
22 -10 13 0 12 5 -7 24 -19 21 -20 27 -9 39 11 11 20 11 42 2 l28 -11 -23 -12
c-17 -8 -19 -11 -6 -11 25 -1 49 10 42 20 -5 8 0 10 39 13 6 1 15 5 18 10 4 5
20 4 38 -2 38 -14 61 -6 61 19 0 10 5 19 10 19 6 0 10 5 10 11 0 5 -5 7 -11 3
-7 -4 -10 -1 -7 7 5 17 91 40 97 26 2 -5 7 -3 12 4 8 13 69 23 67 10 -2 -20 4
-31 17 -31 20 0 30 26 17 43 -22 28 2 68 30 51 7 -5 9 2 4 19 -5 20 -1 31 14
44 25 21 26 49 3 62 -17 10 -15 12 16 15 8 0 16 7 19 15 3 9 -1 11 -17 6 -12
-4 -21 -2 -21 4 0 6 5 11 10 11 6 0 8 11 4 28 -7 24 -6 26 9 13 10 -7 17 -10
17 -5 0 14 -13 30 -35 42 -11 6 -14 12 -8 12 9 0 10 7 3 24 -4 13 -7 35 -6 50
2 15 0 29 -4 31 -5 3 -6 14 -3 25 4 15 -1 21 -23 26 -25 7 -26 8 -9 15 11 4
14 8 8 8 -25 2 -6 115 21 133 7 5 5 8 -6 8 -19 0 -34 18 -23 28 3 3 10 0 15
-8 15 -24 23 -4 9 22 -7 12 -12 27 -10 33 1 5 -5 15 -15 22 -24 18 -13 25 46
31 33 3 50 1 50 -7 0 -6 10 -11 23 -11 26 0 54 -40 43 -59 -10 -15 -26 -14
-26 3 0 7 -8 20 -17 27 -15 12 -16 12 -10 -3 4 -12 2 -15 -9 -11 -7 3 -14 1
-14 -4 0 -12 46 -35 77 -39 13 -1 33 -6 45 -10 13 -4 29 -7 36 -6 6 2 12 -4
12 -13 0 -12 -6 -14 -27 -9 l-28 7 24 -26 c16 -18 28 -24 35 -17 7 5 17 5 26
0 25 -16 27 -12 25 54 l-2 63 28 -10 c15 -6 27 -16 26 -21 -1 -6 5 -11 13 -11
8 0 21 -4 28 -8 6 -5 12 -4 12 2 0 5 -5 13 -10 16 -15 9 -2 25 16 18 12 -5 15
-29 13 -149 0 -78 1 -146 4 -151 6 -11 16 -146 22 -313 6 -158 12 -251 25
-375 19 -182 29 -502 17 -522 -3 -5 -9 -65 -12 -132 -5 -90 -3 -121 5 -116 6
4 16 18 21 32 5 14 18 27 29 30 12 3 19 12 18 22 -2 9 4 16 12 16 24 0 30 16
30 80 1 58 22 105 47 105 10 0 102 101 117 128 9 17 26 32 36 32 9 0 30 -53
30 -76 0 -13 5 -26 10 -29 6 -3 10 -15 10 -26 0 -10 4 -19 9 -19 5 0 11 -9 14
-20 10 -38 29 -22 27 23 -4 63 -1 89 9 83 4 -3 8 8 7 24 -1 17 -4 30 -8 30 -5
0 -8 5 -8 11 0 5 5 7 10 4 6 -3 10 -2 10 4 0 6 6 8 14 5 14 -5 17 2 32 89 3
21 15 44 27 52 17 12 22 29 27 107 4 51 6 94 5 96 -1 1 -18 -21 -37 -50 -19
-29 -70 -89 -111 -133 -42 -44 -77 -83 -77 -87 0 -5 -7 -8 -15 -8 -8 0 -15 -4
-15 -9 0 -4 -10 -20 -22 -34 -13 -14 -34 -41 -48 -59 -38 -50 -91 -99 -100
-93 -11 7 -3 261 9 283 8 16 6 164 -3 189 -3 6 2 14 10 17 26 10 36 7 30 -9
-7 -20 22 -20 64 1 24 12 29 19 19 25 -20 12 -2 11 22 -1 29 -16 72 15 64 47
-4 16 -1 23 10 23 8 0 15 5 15 10 0 6 5 10 11 10 5 0 7 -5 4 -10 -6 -11 44
-34 53 -25 3 3 0 5 -7 5 -7 0 -9 5 -5 11 4 8 -1 9 -16 4 -21 -7 -21 -6 -6 17
9 14 35 29 62 37 43 13 45 15 29 28 -11 7 -42 13 -71 13 -53 0 -93 -14 -154
-52 -20 -13 -50 -32 -68 -43 -17 -11 -32 -26 -32 -32 0 -7 -4 -13 -9 -13 -20
0 20 143 61 215 7 11 15 38 19 60 4 22 17 67 27 100 30 91 41 145 48 236 5 62
14 100 35 145 16 34 29 75 30 90 0 30 12 49 89 150 25 33 53 75 64 94 10 19
29 48 43 64 14 17 21 35 18 47 -3 10 8 51 24 91 47 113 80 234 92 336 12 102
9 164 -16 327 -10 66 -14 136 -11 175 3 36 8 256 12 490 5 366 4 435 -10 500
-9 41 -16 84 -16 95 0 12 -9 38 -20 60 -11 22 -20 44 -20 50 0 6 -11 34 -25
61 -14 27 -29 73 -35 102 -5 29 -17 67 -27 84 -11 22 -16 51 -14 87 1 36 -3
58 -13 70 -8 9 -26 52 -41 95 -14 44 -37 105 -52 135 -15 30 -27 69 -27 87 0
22 -4 30 -13 27 -16 -6 -27 21 -19 43 6 16 8 16 24 0 24 -21 32 -20 32 2 -1
21 -26 56 -43 58 -30 3 -35 5 -40 17 -4 10 2 13 19 9 27 -5 31 9 15 51 -5 14
-14 58 -20 98 -6 41 -17 97 -25 124 -8 28 -18 62 -21 78 -3 18 -12 27 -24 27
-19 0 -61 59 -61 86 0 8 -4 14 -9 14 -12 0 -41 46 -46 72 -3 12 -16 33 -30 48
-14 14 -25 29 -25 33 0 4 -16 22 -35 40 -20 18 -35 41 -35 54 0 16 -12 29 -40
45 -32 19 -38 27 -33 45 3 14 1 23 -6 23 -18 0 -12 29 8 40 19 10 19 11 -6 55
-20 36 -29 44 -44 40 -22 -7 -24 4 -5 30 8 11 19 16 30 12 16 -6 16 -4 -1 23
-9 17 -22 30 -28 30 -21 0 -58 48 -51 66 4 12 -9 31 -45 65 -29 27 -56 49 -61
49 -5 0 -6 9 -3 20 5 15 2 20 -13 20 -26 0 -33 10 -21 31 13 25 -13 61 -59 83
-40 20 -43 20 -36 1 4 -8 2 -15 -2 -15 -18 0 -35 17 -52 50 -13 24 -30 38 -67
51 -27 10 -54 18 -60 18 -29 -3 -35 3 -35 36 0 43 19 46 64 12 17 -13 41 -29
54 -36 23 -12 23 -12 9 16 -8 15 -24 37 -36 47 -12 11 -21 25 -21 31 0 7 -11
16 -24 19 -34 8 -52 57 -36 96 17 41 37 38 50 -10 11 -40 24 -57 34 -42 9 15
-11 124 -24 132 -16 10 -4 30 17 30 10 0 13 6 9 16 -3 9 -6 18 -6 20 0 2 -7 4
-15 4 -8 0 -15 -4 -15 -10 0 -5 -4 -10 -9 -10 -4 0 -6 11 -4 24 7 35 -47 90
-123 126 -35 17 -64 37 -64 43 0 7 -10 13 -21 14 -39 3 -134 36 -142 50 -4 7
-26 13 -49 13 -37 0 -40 2 -36 24 6 30 -16 38 -79 29 -28 -4 -73 2 -130 15
-49 12 -101 24 -117 27 -21 5 -26 9 -18 17 15 15 0 42 -51 95 -28 29 -38 48
-35 61 4 14 0 22 -13 25 -12 3 -19 14 -19 30 0 26 -16 37 -56 37 -14 0 -27 7
-30 15 -4 8 -15 15 -26 15 -11 0 -63 18 -115 40 -53 22 -126 45 -162 51 -36 5
-93 17 -126 25 -49 13 -69 14 -104 4 -36 -9 -47 -9 -68 5 -21 14 -24 22 -20
51 3 19 2 34 -3 34 -5 0 -19 18 -30 40 -23 45 -17 60 30 75 21 7 23 6 13 -7
-14 -16 -8 -28 13 -28 6 0 14 11 16 24 4 20 -1 24 -44 36 -36 9 -52 18 -58 36
-6 14 -18 24 -28 24 -29 0 -72 45 -72 75 0 27 -9 32 -27 14 -15 -15 -80 -14
-98 1 -7 6 -12 17 -9 24 4 9 -10 15 -45 20 -43 6 -51 10 -51 27 0 20 -2 20
-22 7 -13 -8 -38 -20 -56 -26 -28 -10 -35 -9 -52 8 -11 11 -16 26 -13 39 4 17
1 21 -16 21 -15 0 -25 -9 -32 -30 -13 -35 -10 -34 -44 -18 -21 9 -28 9 -38 -4
-9 -12 -38 -17 -109 -21 -57 -3 -98 -2 -98 4 0 5 -7 9 -15 9 -8 0 -15 5 -15
10 0 6 7 10 15 10 8 0 15 4 15 9 0 5 3 16 6 25 5 13 -1 16 -25 16 -26 0 -31 4
-31 25 0 14 -8 29 -19 34 -10 6 -24 24 -29 41 -13 36 -24 38 -42 5z m47 -42
c9 -22 -36 -60 -48 -41 -5 7 -9 23 -9 36 0 17 6 22 25 22 15 0 28 -7 32 -17z
m598 -203 c3 -5 30 -10 58 -10 56 0 85 -14 125 -62 14 -16 34 -28 48 -28 26 0
48 -32 41 -60 -3 -11 3 -26 13 -35 21 -19 32 -75 15 -75 -6 0 -16 5 -23 12
-10 10 -17 7 -35 -10 -19 -19 -20 -24 -7 -32 8 -5 31 -10 51 -10 24 0 39 -5
43 -16 12 -32 6 -43 -29 -50 -24 -4 -35 -12 -35 -23 0 -14 -11 -18 -55 -20
-45 -2 -55 1 -55 14 0 11 -7 15 -22 13 -28 -4 -36 -28 -9 -28 12 0 21 -3 21
-8 0 -14 -55 -30 -95 -28 -22 2 -67 4 -100 5 -62 1 -99 15 -79 29 6 4 13 15
17 25 6 15 10 16 28 7 16 -9 26 -8 44 4 14 9 32 16 42 16 13 0 14 3 5 12 -7 7
-12 21 -12 33 0 18 7 20 56 22 64 2 90 22 49 37 -14 6 -25 13 -25 17 0 12 61
39 86 39 13 0 26 5 29 11 10 15 -2 24 -17 11 -17 -14 -143 -36 -168 -29 -13 3
-20 0 -20 -9 0 -8 -8 -15 -17 -15 -10 -1 -31 -3 -48 -5 -48 -5 -136 7 -130 17
4 5 15 9 26 9 11 0 42 11 69 25 27 14 57 25 66 25 20 0 74 16 123 38 l34 14
-54 24 c-57 25 -99 31 -99 14 0 -5 -4 -10 -10 -10 -5 0 -10 12 -10 26 0 23 -4
26 -25 22 -21 -4 -23 -3 -14 14 17 31 90 51 104 28z m-113 -89 c-2 -8 1 -17 7
-20 5 -4 7 -11 3 -17 -10 -14 -75 -44 -84 -38 -10 6 -11 78 -1 88 14 13 78 2
75 -13z m-114 -16 c12 -9 -17 -37 -49 -46 -32 -10 -42 -9 -62 4 -20 13 -28 14
-49 3 -40 -21 -78 -25 -78 -9 0 8 9 17 20 20 11 3 20 9 20 13 0 15 75 27 135
22 33 -2 61 -6 63 -7z m210 -17 c-3 -7 -11 -13 -18 -13 -7 0 -15 6 -17 13 -3
7 4 12 17 12 13 0 20 -5 18 -12z m-48 -216 c0 -8 -57 -32 -78 -32 -7 0 -12 7
-12 15 0 18 -12 19 -27 4 -11 -11 -37 -3 -29 9 6 10 146 14 146 4z m-1305 -11
c6 -10 -27 -34 -87 -65 -21 -11 -38 -26 -38 -35 0 -16 -14 -26 -122 -88 -85
-48 -74 -16 17 52 22 17 46 36 53 43 7 6 22 12 32 12 10 0 20 9 23 20 3 13 14
20 29 20 14 0 35 11 48 25 25 27 35 30 45 16z m1955 -115 c0 -9 -7 -12 -20 -9
-31 8 -34 23 -6 23 16 0 26 -6 26 -14z m-2345 -16 c-3 -5 -11 -10 -16 -10 -6
0 -7 5 -4 10 3 6 11 10 16 10 6 0 7 -4 4 -10z m2549 -25 c4 -11 -2 -15 -24
-15 -33 0 -49 16 -23 23 33 9 41 7 47 -8z m-2589 -76 c-8 -19 -26 -47 -40 -64
-14 -16 -25 -34 -25 -40 -1 -21 -129 -139 -207 -190 -122 -80 -111 -44 30 97
111 112 250 238 255 234 1 -2 -4 -18 -13 -37z m2424 12 c24 -15 1 -31 -45 -31
-47 0 -58 15 -21 30 29 11 49 12 66 1z m392 -26 c-1 -15 -24 -12 -29 3 -3 9 2
13 12 10 10 -1 17 -7 17 -13z m-276 -9 c11 -7 41 -16 67 -20 25 -4 52 -14 58
-21 16 -19 49 -19 56 -1 3 8 0 24 -6 37 -11 20 -10 21 6 14 11 -4 31 -11 46
-17 15 -5 30 -18 33 -29 4 -10 11 -19 16 -19 5 0 9 -5 9 -11 0 -8 -4 -8 -13
-1 -7 6 -26 12 -42 14 -44 5 -38 -21 13 -55 25 -17 42 -36 42 -48 0 -23 -18
-24 -67 -4 -19 8 -46 15 -58 15 -17 0 -22 6 -22 25 0 14 -4 29 -7 33 -11 11
-41 -13 -44 -37 -3 -20 -22 -27 -62 -22 -8 1 -29 2 -46 2 -50 2 -59 12 -59 75
-1 36 -6 59 -13 62 -7 2 -12 8 -12 13 0 14 83 11 105 -5z m-2475 -36 c-9 -17
-30 -28 -30 -16 0 16 15 36 26 36 12 0 12 -4 4 -20z m2820 -10 c13 0 90 -116
83 -124 -19 -19 -93 17 -93 46 0 5 -10 22 -21 37 -22 30 -18 56 8 47 8 -3 19
-6 23 -6z m-3536 -59 c3 -5 -7 -17 -22 -26 -15 -10 -31 -24 -35 -32 -5 -7 -12
-11 -17 -8 -8 5 49 74 62 75 4 0 9 -4 12 -9z m3056 5 c0 -2 3 -11 6 -20 5 -13
-1 -16 -25 -16 -24 0 -31 4 -31 20 0 15 7 20 25 20 14 0 25 -2 25 -4z m-3180
-30 c0 -7 -7 -19 -15 -26 -8 -7 -26 -37 -41 -69 -14 -31 -34 -65 -44 -76 -9
-11 -20 -32 -24 -48 -9 -39 -73 -107 -101 -107 -22 0 -23 4 -21 49 2 50 2 49
94 162 13 16 29 29 34 29 10 0 50 39 86 84 16 20 32 21 32 2z m4215 -246 c3
-5 -3 -10 -14 -10 -12 0 -21 5 -21 10 0 6 6 10 14 10 8 0 18 -4 21 -10z
m-4685 -69 c0 -12 -20 -25 -27 -18 -7 7 6 27 18 27 5 0 9 -4 9 -9z m-230 -7
c0 -14 -35 -64 -48 -69 -18 -7 -32 2 -32 21 0 8 5 12 10 9 6 -4 20 5 33 19 21
24 37 33 37 20z m4923 -61 c-7 -2 -19 -2 -25 0 -7 3 -2 5 12 5 14 0 19 -2 13
-5z m140 -114 c21 -22 45 -39 52 -39 13 0 35 -29 35 -45 0 -3 -17 -5 -37 -3
-28 2 -38 7 -37 19 1 11 -12 21 -40 29 -49 14 -63 25 -81 61 l-14 27 42 -5
c31 -4 52 -16 80 -44z m-173 -14 c7 -9 10 -19 6 -22 -8 -9 -38 9 -44 25 -5 17
23 15 38 -3z m-5140 -175 c0 -16 -4 -30 -10 -30 -5 0 -10 14 -10 30 0 17 5 30
10 30 6 0 10 -13 10 -30z m-17 -70 c-3 -11 -14 -20 -24 -20 -18 0 -19 1 -3 25
18 28 35 25 27 -5z m5757 -176 c0 -9 -7 -14 -17 -12 -25 5 -28 28 -4 28 12 0
21 -6 21 -16z m-6475 -598 c-28 -57 -41 -73 -52 -62 -4 3 3 20 15 36 12 16 22
36 22 45 0 28 21 58 32 47 7 -7 2 -28 -17 -66z m-496 -227 c20 -16 23 -24 15
-37 -14 -23 -11 -78 4 -74 7 1 12 -2 12 -8 0 -16 -53 -11 -76 8 -27 22 -45 67
-37 89 18 47 44 54 82 22z m-108 -32 c-11 -29 -31 -45 -31 -25 0 16 30 61 36
55 3 -2 0 -16 -5 -30z m3 -56 c3 -5 -1 -11 -9 -14 -9 -4 -12 -1 -8 9 6 16 10
17 17 5z m7571 -80 c-9 -30 -45 -28 -45 2 0 13 5 28 12 35 18 18 42 -9 33 -37z
m60 -49 c0 -18 -20 -15 -23 4 -3 10 1 15 10 12 7 -3 13 -10 13 -16z m-7555
-33 c7 -11 9 -23 6 -26 -8 -9 -36 17 -36 33 0 21 18 17 30 -7z m-150 -23 c0
-17 -14 -29 -23 -20 -8 8 3 34 14 34 5 0 9 -6 9 -14z m3327 -2 c-3 -3 -12 -4
-19 -1 -8 3 -5 6 6 6 11 1 17 -2 13 -5z m293 -3 c0 -5 -7 -12 -16 -15 -14 -5
-15 -4 -4 9 14 17 20 19 20 6z m-290 -21 c-20 -13 -33 -13 -25 0 3 6 14 10 23
10 15 0 15 -2 2 -10z m-75 -20 c3 -5 1 -10 -4 -10 -6 0 -11 5 -11 10 0 6 2 10
4 10 3 0 8 -4 11 -10z m1015 1 c0 -12 -20 -25 -27 -18 -7 7 6 27 18 27 5 0 9
-4 9 -9z m-750 -35 c0 -3 -4 -8 -10 -11 -5 -3 -10 -1 -10 4 0 6 5 11 10 11 6
0 10 -2 10 -4z m-95 -26 c3 -5 1 -10 -4 -10 -6 0 -11 5 -11 10 0 6 2 10 4 10
3 0 8 -4 11 -10z m15 -35 c0 -8 -6 -15 -14 -15 -17 0 -28 14 -19 24 12 12 33
6 33 -9z m940 5 c0 -5 -2 -10 -4 -10 -3 0 -8 5 -11 10 -3 6 -1 10 4 10 6 0 11
-4 11 -10z m124 -16 c3 -8 2 -12 -4 -9 -6 3 -10 10 -10 16 0 14 7 11 14 -7z
m-4504 -34 c0 -5 -6 -10 -14 -10 -8 0 -18 5 -21 10 -3 6 3 10 14 10 12 0 21
-4 21 -10z m4660 -40 c0 -13 -5 -18 -15 -14 -12 5 -13 10 -4 20 15 19 19 18
19 -6z m-4699 -6 c7 -8 31 -25 53 -36 23 -11 42 -22 44 -23 2 -1 0 -14 -4 -29
-7 -31 -29 -34 -37 -5 -4 15 -12 19 -34 17 -25 -3 -28 0 -28 27 0 20 -6 31
-17 33 -21 4 -24 32 -4 32 7 0 19 -7 27 -16z m4789 -67 c0 -7 7 -25 15 -41 14
-26 14 -30 -2 -42 -24 -18 -33 -17 -49 4 -18 23 -17 32 1 32 8 0 15 5 15 10 0
6 -4 10 -10 10 -14 0 -12 38 3 43 16 6 27 -1 27 -16z m-1805 -107 c3 -5 1 -10
-4 -10 -6 0 -11 5 -11 10 0 6 2 10 4 10 3 0 8 -4 11 -10z m143 -313 c2 -10 -3
-17 -11 -17 -16 0 -30 24 -19 34 10 10 27 1 30 -17z m-108 -448 c0 -4 -4 -11
-10 -14 -5 -3 -10 0 -10 9 0 8 -3 23 -6 33 -5 16 -4 16 10 -1 9 -11 16 -23 16
-27z m0 -67 c0 -16 -8 -32 -18 -39 -17 -10 -18 -8 -15 15 7 41 11 52 23 52 5
0 10 -12 10 -28z m-1194 -366 c24 -24 16 -38 -11 -20 -26 17 -33 34 -14 34 6
0 17 -6 25 -14z m14 -105 c0 -11 -4 -23 -10 -26 -6 -4 -9 5 -8 19 3 30 18 35
18 7z m-30 -41 c0 -5 -5 -10 -11 -10 -5 0 -7 5 -4 10 3 6 8 10 11 10 2 0 4 -4
4 -10z m4210 -14 c0 -3 -4 -8 -10 -11 -5 -3 -10 -1 -10 4 0 6 5 11 10 11 6 0
10 -2 10 -4z m-4206 -21 c-4 -8 -11 -15 -16 -15 -6 0 -5 6 2 15 7 8 14 15 16
15 2 0 1 -7 -2 -15z m-239 -44 c-3 -6 -11 -11 -17 -11 -6 0 -6 6 2 15 14 17
26 13 15 -4z m165 -5 c0 -8 6 -17 13 -20 6 -3 3 -5 -8 -3 -20 2 -35 37 -16 37
6 0 11 -6 11 -14z m-127 -83 c6 -32 1 -43 -18 -43 -19 0 -29 38 -15 55 18 22
27 18 33 -12z m140 11 c-5 -13 -2 -15 15 -9 13 4 22 2 22 -4 0 -6 -4 -11 -10
-11 -5 0 -21 -12 -36 -27 -21 -22 -25 -24 -19 -8 8 23 13 45 14 63 1 6 5 12
11 12 5 0 7 -7 3 -16z m-181 -76 c2 -15 9 -22 21 -22 12 1 17 -5 17 -22 0 -18
-5 -24 -22 -23 -13 0 -18 3 -11 5 20 9 2 34 -23 34 -19 0 -24 5 -24 25 0 33
37 35 42 3z m-17 -58 c-5 -14 -2 -20 9 -20 21 0 20 -10 -1 -25 -15 -11 -16
-15 -3 -31 8 -10 10 -15 3 -11 -7 4 -21 2 -32 -5 -24 -15 -39 -4 -22 15 6 8
12 27 13 43 1 16 9 34 18 41 21 17 22 16 15 -7z m1075 6 c0 -15 -18 -31 -26
-23 -7 7 7 37 17 37 5 0 9 -6 9 -14z m149 -10 c14 -16 5 -102 -10 -112 -5 -3
-9 -11 -9 -18 0 -30 -68 -157 -87 -163 -18 -6 -24 29 -8 47 8 9 15 31 15 48 0
18 5 32 10 32 6 0 10 19 10 43 0 29 6 50 20 65 11 12 20 30 20 40 0 33 20 42
39 18z m-1089 -102 c0 -18 -24 -44 -41 -44 -11 0 -18 -4 -15 -9 9 -15 -22 -33
-44 -26 -28 9 -25 33 5 47 14 6 25 15 25 19 0 4 10 10 23 12 36 7 47 7 47 1z
m4570 -44 c0 -5 -2 -10 -4 -10 -3 0 -8 5 -11 10 -3 6 -1 10 4 10 6 0 11 -4 11
-10z m-4723 -124 c-4 -9 1 -16 11 -19 12 -3 10 -6 -10 -11 -16 -5 -33 -21 -43
-42 -19 -41 -23 -42 -35 -8 -10 24 -1 57 13 55 4 -1 17 -1 30 0 19 1 19 2 -8
14 l-30 13 35 5 c19 2 37 5 39 5 2 1 1 -4 -2 -12z m1093 -26 c0 -5 -4 -10 -9
-10 -6 0 -13 5 -16 10 -3 6 1 10 9 10 9 0 16 -4 16 -10z m3830 -48 c-1 -24 -2
-25 -14 -10 -7 10 -16 15 -19 11 -4 -3 -7 0 -7 8 0 8 9 15 20 16 15 1 20 -4
20 -25z m-4880 4 c0 -10 -60 -70 -65 -65 -5 6 47 69 58 69 4 0 7 -2 7 -4z
m350 -46 c0 -5 -2 -10 -4 -10 -3 0 -8 5 -11 10 -3 6 -1 10 4 10 6 0 11 -4 11
-10z m4540 -4 c0 -3 -4 -8 -10 -11 -5 -3 -10 -1 -10 4 0 6 5 11 10 11 6 0 10
-2 10 -4z m-4904 -173 c-1 -17 -14 -33 -27 -33 -5 0 -5 38 0 48 5 11 28 -2 27
-15z m-109 -15 c-3 -8 -6 -5 -6 6 -1 11 2 17 5 13 3 -3 4 -12 1 -19z m63 -18
c0 -5 -9 -9 -20 -7 -31 5 -36 17 -7 17 15 0 27 -4 27 -10z m130 -10 c0 -4 -8
-7 -17 -5 -10 2 -20 4 -23 4 -3 1 2 5 10 10 15 10 30 6 30 -9z m-306 -95 c-4
-15 -13 -25 -24 -25 -28 0 -33 18 -10 32 11 7 20 22 20 33 1 18 2 18 11 3 5
-10 7 -29 3 -43z m4096 -60 c0 -9 -9 -15 -25 -15 -29 0 -34 16 -7 23 30 8 32
7 32 -8z m-4049 -348 c-10 -9 -11 -8 -5 6 3 10 9 15 12 12 3 -3 0 -11 -7 -18z
m1116 17 c-3 -3 -12 -4 -19 -1 -8 3 -5 6 6 6 11 1 17 -2 13 -5z m-1147 -74 c0
-5 -5 -10 -11 -10 -5 0 -7 5 -4 10 3 6 8 10 11 10 2 0 4 -4 4 -10z m1380 -31
c73 1 119 -3 150 -14 25 -9 55 -13 68 -10 12 3 22 1 22 -4 0 -5 3 -16 6 -24 6
-17 -22 -31 -39 -20 -29 18 -416 -5 -457 -27 -10 -5 -30 -10 -45 -10 -14 0
-39 -7 -56 -15 -16 -9 -34 -13 -40 -10 -5 4 -20 0 -33 -8 -13 -9 -39 -19 -60
-22 -20 -4 -36 -11 -36 -16 0 -5 -20 -18 -44 -29 -72 -32 -98 -24 -53 17 34
32 160 93 190 93 15 0 59 15 99 34 90 43 110 51 155 58 12 2 26 7 30 11 4 4
14 5 22 1 9 -3 63 -5 121 -5z m-550 -14 c0 -8 -6 -14 -12 -12 -7 1 -13 -5 -13
-13 0 -19 -35 -34 -49 -20 -14 14 -26 12 -26 -5 0 -8 -6 -15 -13 -15 -15 0
-20 37 -6 45 5 4 9 2 9 -3 0 -13 73 13 78 27 6 17 32 13 32 -4z m-990 -75 c0
-5 -10 -10 -22 -10 -19 0 -20 2 -8 10 19 13 30 13 30 0z m4973 -17 c-13 -2
-33 -2 -45 0 -13 2 -3 4 22 4 25 0 35 -2 23 -4z m71 -8 c-4 -8 -8 -15 -10 -15
-2 0 -4 7 -4 15 0 8 4 15 10 15 5 0 7 -7 4 -15z m-4164 -5 c0 -5 -4 -10 -9
-10 -6 0 -13 5 -16 10 -3 6 1 10 9 10 9 0 16 -4 16 -10z m650 -34 c-13 -13
-35 7 -25 24 5 8 11 8 21 -1 10 -8 12 -15 4 -23z m137 9 c-2 -50 -48 -56 -94
-13 -31 29 -20 40 42 36 46 -2 53 -5 52 -23z m3193 -2 c0 -13 18 -17 53 -14 9
1 17 -2 17 -8 0 -14 -41 -25 -49 -14 -3 6 -23 9 -44 9 -27 -1 -36 2 -33 11 6
16 1 16 -25 3 -25 -14 -43 -4 -26 15 16 17 107 15 107 -2z m135 7 c3 -5 2 -10
-4 -10 -5 0 -13 5 -16 10 -3 6 -2 10 4 10 5 0 13 -4 16 -10z m107 -30 c-2 -18
0 -30 7 -30 6 0 11 7 11 15 0 8 5 15 10 15 6 0 10 -8 10 -18 0 -10 7 -27 15
-38 19 -28 11 -34 -33 -22 -20 5 -46 11 -58 13 -35 5 -124 39 -124 47 0 4 7 5
15 2 11 -5 14 -1 9 12 -5 18 -5 18 10 1 11 -15 23 -18 56 -13 52 7 60 12 60
37 0 11 4 18 8 15 5 -3 7 -19 4 -36z m58 30 c0 -5 -4 -10 -10 -10 -5 0 -10 5
-10 10 0 6 5 10 10 10 6 0 10 -4 10 -10z m60 4 c0 -16 -60 -73 -66 -63 -3 6 3
19 15 30 12 11 21 24 21 29 0 6 7 10 15 10 8 0 15 -3 15 -6z m620 -4 c0 -5 -5
-10 -11 -10 -5 0 -7 5 -4 10 3 6 8 10 11 10 2 0 4 -4 4 -10z m-770 -10 c0 -5
-4 -10 -10 -10 -5 0 -10 5 -10 10 0 6 5 10 10 10 6 0 10 -4 10 -10z m237 -6
c-3 -3 -12 -4 -19 -1 -8 3 -5 6 6 6 11 1 17 -2 13 -5z m-36 -44 c20 -6 43 -17
50 -26 11 -14 9 -15 -22 -9 -60 11 -74 11 -71 -4 2 -8 -3 -11 -12 -8 -8 3 -17
1 -19 -6 -7 -21 -17 -2 -10 21 3 12 9 19 14 16 5 -3 12 2 15 10 7 19 8 19 55
6z m886 -25 c-1 -19 -8 -37 -16 -40 -20 -8 -22 -3 -10 38 13 47 28 48 26 2z
m-4657 -12 c0 -10 -4 -14 -8 -8 -4 6 -11 13 -16 18 -5 4 -2 7 7 7 10 0 17 -8
17 -17z m3930 3 c0 -3 -4 -8 -10 -11 -5 -3 -10 -1 -10 4 0 6 5 11 10 11 6 0
10 -2 10 -4z m-4550 -16 c-8 -5 -22 -9 -30 -9 -10 0 -8 3 5 9 27 12 43 12 25
0z m4880 0 c0 -5 -4 -10 -10 -10 -5 0 -10 5 -10 10 0 6 5 10 10 10 6 0 10 -4
10 -10z m-442 -20 c22 0 6 -13 -18 -15 -11 -1 -20 4 -20 10 0 16 14 28 18 16
2 -6 11 -11 20 -11z m212 0 c0 -11 -48 -25 -57 -16 -4 3 3 6 15 6 12 0 22 5
22 10 0 6 5 10 10 10 6 0 10 -4 10 -10z m-102 -16 c12 -8 22 -21 22 -27 0 -8
-3 -9 -8 -1 -4 5 -18 18 -32 27 -13 9 -20 17 -14 17 5 0 20 -7 32 -16z m-3993
-15 c5 -5 1 -9 -13 -9 -12 0 -22 6 -22 13 0 9 -3 8 -9 -2 -5 -7 -14 -10 -20
-7 -6 4 -9 12 -5 18 7 11 53 2 69 -13z m4585 -10 c0 -4 -7 -6 -15 -3 -8 4 -15
10 -15 15 0 4 7 6 15 3 8 -4 15 -10 15 -15z m-1203 -103 c-9 -22 -67 -22 -67
0 0 12 7 14 30 9 26 -6 29 -4 24 12 -6 14 -4 16 6 6 7 -6 10 -19 7 -27z m988
15 c-3 -6 -14 -11 -23 -11 -13 0 -13 2 4 14 21 15 30 14 19 -3z m-901 -7 c20
-19 20 -24 3 -24 -8 0 -24 9 -37 20 -23 20 -23 20 -2 20 11 0 28 -7 36 -16z
m-4320 -13 c3 -5 -1 -11 -9 -15 -9 -3 -15 0 -15 9 0 16 16 20 24 6z m366 -1
c0 -5 -9 -10 -20 -10 -11 0 -20 5 -20 10 0 6 9 10 20 10 11 0 20 -4 20 -10z
m4840 -10 c0 -5 -4 -10 -10 -10 -5 0 -10 5 -10 10 0 6 5 10 10 10 6 0 10 -4
10 -10z m-4920 -16 c0 -9 -5 -14 -12 -12 -18 6 -21 28 -4 28 9 0 16 -7 16 -16z
m730 -11 c-1 -18 -18 -35 -24 -24 -4 6 -4 16 -1 21 7 12 25 13 25 3z m833 -14
c7 -26 -2 -51 -17 -46 -17 6 -20 67 -3 67 8 0 17 -9 20 -21z m-1875 -60 c-7
-4 -16 -3 -20 4 -11 18 2 29 18 16 12 -10 12 -14 2 -20z m282 21 c13 -8 13
-10 -2 -10 -9 0 -20 5 -23 10 -8 13 5 13 25 0z m1177 -16 c49 -5 67 -12 86
-33 13 -14 33 -31 43 -37 17 -10 17 -14 5 -36 -10 -20 -10 -30 -2 -47 13 -24
36 -29 27 -6 -3 8 -1 15 3 15 5 0 16 3 25 6 11 4 16 1 16 -11 0 -9 7 -23 15
-31 23 -24 18 -34 -19 -34 -25 0 -35 -5 -39 -20 -6 -24 -27 -27 -27 -4 0 36
-151 -7 -168 -48 -2 -4 -20 -8 -41 -8 -41 0 -61 -14 -61 -44 0 -14 -3 -17 -8
-9 -8 13 -62 10 -89 -6 -10 -5 -18 -20 -18 -33 0 -14 -6 -23 -15 -23 -8 0 -18
-7 -22 -16 -8 -19 -77 -31 -95 -16 -9 6 -21 4 -37 -7 -27 -17 -40 -8 -29 20 5
14 3 16 -13 10 -10 -5 -32 -13 -49 -18 -16 -6 -36 -15 -43 -21 -22 -17 -27 2
-8 33 l17 30 -30 0 c-21 0 -31 5 -31 15 0 12 13 14 73 10 41 -2 110 3 162 12
85 14 92 18 128 57 76 83 105 136 121 225 9 46 16 85 16 88 0 3 10 3 23 0 12
-3 50 -9 84 -13z m1963 -54 c0 -5 -10 -10 -22 -10 -19 0 -20 2 -8 10 19 13 30
13 30 0z m397 -33 c6 -18 15 -48 18 -67 9 -44 60 -158 82 -182 13 -14 13 -20
3 -33 -13 -16 -40 -20 -40 -6 0 9 -91 51 -111 51 -26 0 -129 46 -129 58 0 19
-28 14 -40 -8 -6 -12 -21 -20 -36 -20 -21 0 -25 4 -23 28 3 44 -11 73 -34 70
-11 -2 -24 5 -30 14 -16 24 26 54 87 63 27 3 62 15 77 26 28 19 135 49 155 42
5 -2 15 -18 21 -36z m-3181 -2 c-22 -33 -20 -38 9 -32 21 3 29 -1 40 -24 31
-60 78 -120 123 -158 39 -34 45 -44 36 -58 -13 -21 -52 -32 -84 -22 -24 7 -24
7 -2 8 38 2 24 17 -18 19 -23 2 -40 -2 -40 -8 0 -7 -6 -7 -21 0 -11 7 -23 9
-26 6 -9 -9 -34 15 -27 25 3 5 1 9 -4 9 -5 0 -12 -9 -15 -20 -3 -11 -11 -20
-18 -20 -10 0 -10 3 -1 12 17 17 15 31 -4 24 -11 -4 -15 0 -14 17 7 77 1 97
-35 118 -28 17 -33 24 -24 35 6 8 17 14 25 14 7 0 20 8 30 18 20 19 76 62 82
62 2 0 -3 -11 -12 -25z m3911 -142 c18 -43 20 -106 4 -111 -8 -3 -22 -12 -33
-21 -10 -9 -35 -18 -56 -21 -22 -3 -36 -10 -34 -18 1 -8 -13 -12 -46 -12 -27
0 -52 -3 -56 -7 -12 -12 -58 -15 -51 -3 3 5 14 10 24 10 20 0 181 154 181 173
0 18 21 37 40 37 8 0 20 -12 27 -27z m740 -15 c-3 -8 -6 -5 -6 6 -1 11 2 17 5
13 3 -3 4 -12 1 -19z m-3486 -70 c6 -11 -3 -14 -44 -15 -52 -1 -121 -9 -166
-19 -21 -4 -23 -3 -12 9 10 13 63 30 98 32 6 0 15 3 19 7 12 12 97 1 105 -14z
m-277 -45 c3 -7 -4 -22 -16 -33 -23 -21 -38 -26 -38 -11 0 5 -10 11 -22 13
-26 3 -31 30 -8 40 25 11 79 6 84 -9z m2139 -13 c39 0 52 -22 20 -34 -21 -8
-104 3 -120 16 -28 22 -14 36 25 27 20 -5 54 -9 75 -9z m-2405 -25 c-6 -14
-15 -25 -20 -25 -11 0 -10 7 2 31 16 28 32 23 18 -6z m132 6 c0 -26 -16 -35
-24 -15 -10 25 -7 34 9 34 8 0 15 -9 15 -19z m2746 -30 c15 -4 29 -12 32 -19
2 -7 -2 -10 -11 -6 -10 3 -17 -3 -21 -19 -7 -28 -36 -45 -36 -22 0 19 -8 19
-26 0 -9 -8 -25 -15 -36 -15 -18 0 -19 4 -13 43 6 41 6 42 -12 21 -25 -29 -76
-37 -120 -19 -30 13 -33 17 -23 30 7 8 15 13 19 11 3 -2 30 -6 59 -10 40 -5
52 -3 52 8 0 20 82 36 97 19 6 -8 24 -18 39 -22z m-2826 -2 c0 -11 -4 -18 -10
-14 -5 3 -7 12 -3 20 7 21 13 19 13 -6z m2525 11 c6 -10 -41 -60 -58 -60 -5 0
-7 9 -4 20 3 11 1 23 -4 26 -16 9 -2 20 30 22 16 1 32 -2 36 -8z m-2172 -21
c-16 -17 -28 -20 -50 -14 l-28 7 30 13 c17 7 39 14 50 14 19 1 19 0 -2 -20z
m2082 -37 c-3 -4 -10 0 -15 8 -6 9 -5 17 3 22 13 8 24 -19 12 -30z m459 3 c-4
-8 -10 -15 -15 -15 -5 0 -9 7 -9 15 0 8 7 15 15 15 9 0 12 -6 9 -15z m-2624
-4 c0 -5 -9 -11 -20 -14 -20 -5 -26 3 -13 16 9 10 33 8 33 -2z m-56 -33 c-3
-4 -14 -8 -25 -8 -11 0 -18 4 -14 9 3 6 14 9 25 8 10 -1 16 -5 14 -9z m-54
-23 c0 -8 -7 -15 -15 -15 -8 0 -15 -4 -15 -10 0 -5 -7 -10 -15 -10 -22 0 -18
17 7 34 28 20 38 20 38 1z m1805 -5 c3 -5 1 -10 -4 -10 -6 0 -11 5 -11 10 0 6
2 10 4 10 3 0 8 -4 11 -10z m-1908 -40 c-6 -11 -15 -20 -19 -20 -12 0 -9 25 4
38 17 17 29 4 15 -18z m278 -21 c-8 -13 -32 -11 -41 3 -4 6 -3 8 4 4 6 -3 13
-2 17 4 4 6 11 8 16 4 5 -3 7 -10 4 -15z m3135 -9 c0 -5 -4 -10 -10 -10 -5 0
-10 5 -10 10 0 6 5 10 10 10 6 0 10 -4 10 -10z m-310 -59 c0 -5 -7 -12 -16
-15 -24 -9 -28 -7 -14 9 14 17 30 20 30 6z m1490 -45 c0 -8 -7 -16 -15 -20
-16 -6 -16 14 0 26 14 10 15 10 15 -6z m-2150 -36 c0 -5 -7 -10 -15 -10 -8 0
-15 5 -15 10 0 6 7 10 15 10 8 0 15 -4 15 -10z"/>
<path d="M7690 18400 c0 -5 10 -10 23 -10 18 0 19 2 7 10 -19 13 -30 13 -30 0z"/>
<path d="M8820 12470 c0 -6 7 -10 15 -10 8 0 15 2 15 4 0 2 -7 6 -15 10 -8 3
-15 1 -15 -4z"/>
<path d="M8870 12454 c0 -8 5 -12 10 -9 6 3 10 10 10 16 0 5 -4 9 -10 9 -5 0
-10 -7 -10 -16z"/>
<path d="M7270 18810 c0 -5 5 -10 10 -10 6 0 10 5 10 10 0 6 -4 10 -10 10 -5
0 -10 -4 -10 -10z"/>
<path d="M6655 18704 c-22 -13 -47 -24 -56 -24 -9 0 -31 -8 -50 -17 -32 -17
-33 -18 -10 -21 13 -2 33 1 45 6 12 5 41 18 66 28 51 20 70 33 70 45 0 15 -22
9 -65 -17z"/>
<path d="M6176 18573 c-29 -7 -87 -47 -116 -77 l-25 -27 48 27 c34 18 52 23
59 16 7 -7 19 -1 39 21 28 31 36 48 22 46 -5 -1 -17 -4 -27 -6z"/>
<path d="M6000 18464 c-17 -5 -44 -43 -37 -51 7 -6 50 17 59 31 16 24 10 28
-22 20z"/>
<path d="M5909 18444 c-12 -14 -11 -16 5 -13 11 2 21 10 24 17 5 17 -13 15
-29 -4z"/>
<path d="M5230 18055 c0 -8 2 -15 4 -15 2 0 6 7 10 15 3 8 1 15 -4 15 -6 0
-10 -7 -10 -15z"/>
<path d="M5105 18049 c-4 -6 -5 -13 -2 -16 7 -7 27 6 27 18 0 12 -17 12 -25
-2z"/>
<path d="M5165 17970 c-3 -5 -1 -10 4 -10 6 0 11 5 11 10 0 6 -2 10 -4 10 -3
0 -8 -4 -11 -10z"/>
<path d="M5288 17963 c-23 -27 -30 -43 -20 -43 11 0 46 50 39 56 -2 2 -11 -4
-19 -13z"/>
<path d="M3706 17429 c-32 -38 -35 -63 -3 -29 21 23 41 60 33 60 -3 0 -16 -14
-30 -31z"/>
<path d="M3622 17240 c0 -14 2 -19 5 -12 2 6 2 18 0 25 -3 6 -5 1 -5 -13z"/>
<path d="M2650 16625 c-18 -46 -22 -75 -12 -75 5 0 14 23 19 50 11 55 8 64 -7
25z"/>
<path d="M2858 16203 c6 -2 18 -2 25 0 6 3 1 5 -13 5 -14 0 -19 -2 -12 -5z"/>
<path d="M2360 15955 c0 -8 2 -15 4 -15 2 0 6 7 10 15 3 8 1 15 -4 15 -6 0
-10 -7 -10 -15z"/>
<path d="M2330 15866 c0 -15 -7 -26 -20 -29 -24 -6 -27 -52 -4 -82 13 -17 16
-18 24 -5 5 8 10 22 10 31 0 9 3 37 6 63 5 31 3 46 -5 46 -6 0 -11 -11 -11
-24z"/>
<path d="M6166 15827 c-16 -12 -16 -13 2 -14 10 -1 19 5 19 13 0 17 1 17 -21
1z"/>
<path d="M6540 15777 c0 -19 10 -27 26 -20 11 4 12 9 3 19 -15 18 -29 18 -29
1z"/>
<path d="M2362 15738 c6 -18 28 -21 28 -4 0 9 -7 16 -16 16 -9 0 -14 -5 -12
-12z"/>
<path d="M5590 15731 c0 -5 5 -13 10 -16 6 -3 10 -2 10 4 0 5 -4 13 -10 16 -5
3 -10 2 -10 -4z"/>
<path d="M6830 15705 c-10 -12 -10 -15 4 -15 9 0 16 7 16 15 0 8 -2 15 -4 15
-2 0 -9 -7 -16 -15z"/>
<path d="M2335 15700 c3 -5 8 -10 11 -10 2 0 4 5 4 10 0 6 -5 10 -11 10 -5 0
-7 -4 -4 -10z"/>
<path d="M6725 15700 c-3 -5 1 -10 9 -10 9 0 16 5 16 10 0 6 -4 10 -9 10 -6 0
-13 -4 -16 -10z"/>
<path d="M5785 15690 c3 -5 10 -10 16 -10 5 0 9 5 9 10 0 6 -7 10 -16 10 -8 0
-12 -4 -9 -10z"/>
<path d="M6785 15680 c-3 -5 -1 -10 4 -10 6 0 11 5 11 10 0 6 -2 10 -4 10 -3
0 -8 -4 -11 -10z"/>
<path d="M6745 15650 c-3 -5 -1 -10 4 -10 6 0 11 5 11 10 0 6 -2 10 -4 10 -3
0 -8 -4 -11 -10z"/>
<path d="M5640 15630 c0 -5 5 -10 10 -10 6 0 10 5 10 10 0 6 -4 10 -10 10 -5
0 -10 -4 -10 -10z"/>
<path d="M6908 15619 c-10 -5 -23 -19 -29 -31 -11 -21 -11 -21 20 1 47 34 54
56 9 30z"/>
<path d="M7268 15473 c7 -3 16 -2 19 1 4 3 -2 6 -13 5 -11 0 -14 -3 -6 -6z"/>
<path d="M2447 15433 c-13 -12 -7 -23 13 -23 11 0 20 7 20 15 0 15 -21 21 -33
8z"/>
<path d="M5601 15413 c-1 -19 30 -93 39 -93 17 0 18 29 2 48 -9 11 -22 29 -29
39 -6 10 -12 12 -12 6z"/>
<path d="M5580 15320 c0 -5 5 -10 11 -10 5 0 7 5 4 10 -3 6 -8 10 -11 10 -2 0
-4 -4 -4 -10z"/>
<path d="M2160 15270 c-33 -25 -21 -34 18 -14 36 17 37 20 19 27 -7 3 -24 -3
-37 -13z"/>
<path d="M5649 15099 c-12 -8 -12 -10 0 -18 8 -5 11 -16 8 -25 -10 -25 8 -19
20 7 13 27 -6 50 -28 36z"/>
<path d="M5680 15036 c0 -7 7 -31 16 -52 l17 -39 8 29 c6 21 3 35 -9 52 -19
26 -32 31 -32 10z"/>
<path d="M7591 14991 c-10 -7 -10 -10 -1 -16 6 -4 16 -3 22 3 13 13 -4 23 -21
13z"/>
<path d="M6036 14361 c-4 -7 -5 -15 -2 -18 9 -9 19 4 14 18 -4 11 -6 11 -12 0z"/>
<path d="M3875 13107 c-20 -11 -19 -24 4 -32 12 -4 17 -13 15 -31 -1 -16 2
-24 9 -21 7 2 12 21 11 43 -1 21 1 33 3 27 7 -21 22 -15 16 6 -5 20 -31 24
-58 8z"/>
<path d="M3890 12948 c0 -19 2 -20 10 -8 13 19 13 30 0 30 -5 0 -10 -10 -10
-22z"/>
<path d="M7360 12935 c0 -14 -4 -25 -9 -25 -10 0 -20 -41 -28 -112 -3 -28 -1
-48 5 -48 9 0 23 44 27 85 2 21 13 78 21 108 3 9 1 17 -5 17 -6 0 -11 -11 -11
-25z"/>
<path d="M3837 12853 c-11 -11 -8 -55 3 -48 6 4 8 16 4 27 -4 15 -3 18 6 13 9
-5 11 -4 6 3 -8 14 -10 14 -19 5z"/>
<path d="M9590 12409 c0 -5 5 -7 10 -4 6 3 10 8 10 11 0 2 -4 4 -10 4 -5 0
-10 -5 -10 -11z"/>
<path d="M9590 12370 c0 -5 5 -10 10 -10 6 0 10 5 10 10 0 6 -4 10 -10 10 -5
0 -10 -4 -10 -10z"/>
<path d="M9633 12343 c9 -9 20 -13 24 -9 4 4 1 11 -7 16 -25 16 -35 11 -17 -7z"/>
<path d="M9645 12320 c-19 -8 -19 -9 2 -9 12 -1 25 4 28 9 7 12 -2 12 -30 0z"/>
<path d="M9600 12280 c0 -5 5 -10 10 -10 6 0 10 5 10 10 0 6 -4 10 -10 10 -5
0 -10 -4 -10 -10z"/>
<path d="M9695 12280 c3 -5 10 -10 16 -10 5 0 9 5 9 10 0 6 -7 10 -16 10 -8 0
-12 -4 -9 -10z"/>
<path d="M3630 12240 c0 -5 5 -10 10 -10 6 0 10 5 10 10 0 6 -4 10 -10 10 -5
0 -10 -4 -10 -10z"/>
<path d="M4711 11691 c-8 -5 -9 -11 -3 -15 5 -3 12 1 16 9 6 17 6 18 -13 6z"/>
<path d="M2676 11458 c4 -35 8 -94 9 -133 1 -38 3 -73 4 -77 0 -3 14 -1 30 5
44 16 115 -2 119 -31 2 -12 7 -20 12 -17 15 9 22 -14 22 -78 l0 -62 14 45 c7
25 19 72 26 105 8 37 18 59 26 58 27 -6 9 46 -34 98 -93 111 -147 148 -212
149 -22 0 -22 -2 -16 -62z"/>
<path d="M5966 11494 c-9 -22 3 -32 14 -14 12 19 12 30 1 30 -5 0 -12 -7 -15
-16z"/>
<path d="M9165 11500 c4 -6 11 -8 16 -5 14 9 11 15 -7 15 -8 0 -12 -5 -9 -10z"/>
<path d="M5474 11475 c-10 -8 -14 -14 -9 -14 6 0 19 6 29 14 11 8 15 15 10 15
-6 0 -19 -7 -30 -15z"/>
<path d="M8545 11420 c-3 -5 -1 -10 4 -10 6 0 11 5 11 10 0 6 -2 10 -4 10 -3
0 -8 -4 -11 -10z"/>
<path d="M8605 11400 c3 -5 8 -10 11 -10 2 0 4 5 4 10 0 6 -5 10 -11 10 -5 0
-7 -4 -4 -10z"/>
<path d="M8645 11399 c-4 -6 -5 -12 -2 -15 2 -3 7 2 10 11 7 17 1 20 -8 4z"/>
<path d="M8675 11401 c-6 -11 9 -23 19 -14 9 9 7 23 -3 23 -6 0 -12 -4 -16 -9z"/>
<path d="M2770 11240 c0 -5 5 -10 10 -10 6 0 10 5 10 10 0 6 -4 10 -10 10 -5
0 -10 -4 -10 -10z"/>
<path d="M3015 11230 c-3 -5 -1 -10 4 -10 6 0 11 5 11 10 0 6 -2 10 -4 10 -3
0 -8 -4 -11 -10z"/>
<path d="M2800 11220 c0 -5 5 -10 11 -10 5 0 7 5 4 10 -3 6 -8 10 -11 10 -2 0
-4 -4 -4 -10z"/>
<path d="M3079 11170 c-12 -8 -12 -12 0 -32 8 -13 21 -35 29 -50 16 -34 42
-37 42 -5 -1 33 -53 98 -71 87z"/>
<path d="M10520 10919 c0 -5 5 -7 10 -4 6 3 10 8 10 11 0 2 -4 4 -10 4 -5 0
-10 -5 -10 -11z"/>
<path d="M10496 10759 c-18 -54 -24 -94 -16 -109 5 -10 7 -20 5 -24 -3 -3 0
-2 5 2 18 15 36 120 22 134 -9 9 -12 8 -16 -3z"/>
<path d="M3205 10290 c-9 -15 17 -90 32 -90 22 0 16 47 -8 53 -13 4 -18 10
-14 17 6 9 10 9 16 -1 10 -16 12 -8 3 15 -7 18 -20 21 -29 6z"/>
<path d="M7159 10184 c-25 -13 -71 -52 -101 -86 -51 -59 -128 -175 -128 -194
-1 -12 -47 -64 -57 -64 -4 0 -26 -16 -47 -35 -40 -37 -42 -56 -3 -37 12 6 36
14 53 17 31 6 94 58 94 77 0 13 76 88 90 88 5 0 9 5 8 11 -6 25 141 53 173 34
9 -6 11 -4 6 7 -9 25 23 46 61 41 38 -6 45 -15 48 -62 1 -20 5 -46 9 -59 7
-21 5 -23 -34 -20 -25 2 -41 8 -41 16 0 17 -29 15 -36 -3 -9 -22 -24 -18 -24
5 0 12 -7 20 -16 20 -9 0 -14 6 -11 13 3 8 1 20 -4 28 -5 8 -9 9 -9 3 0 -7 -9
-14 -21 -17 -16 -4 -19 -11 -14 -26 4 -13 2 -21 -5 -21 -7 0 -9 -8 -5 -19 9
-30 -5 -53 -29 -47 -30 7 -51 -26 -34 -54 10 -16 10 -24 0 -40 -11 -18 -10
-19 14 -9 30 11 46 3 24 -11 -12 -8 -12 -10 -1 -10 9 0 11 -7 7 -23 -7 -30 41
-70 67 -56 12 7 19 4 27 -11 8 -15 8 -20 -1 -18 -7 2 -15 -5 -17 -15 -2 -10 0
-17 5 -16 13 3 43 -12 43 -22 0 -5 -12 -4 -26 2 -15 5 -29 7 -31 5 -9 -9 8
-26 27 -26 11 0 20 -10 24 -25 8 -30 22 -32 31 -5 3 11 10 20 15 20 6 0 6 10
0 25 -7 19 -6 23 5 19 8 -3 22 -1 31 4 15 8 13 11 -14 17 -36 7 -42 30 -12 40
33 10 23 25 -14 20 -42 -5 -66 16 -46 40 13 15 35 11 25 -6 -4 -5 5 -9 20 -9
27 0 46 27 27 39 -21 13 3 32 28 23 15 -6 19 -11 12 -16 -22 -13 -13 -28 13
-22 24 6 30 0 26 -31 -1 -6 3 -14 9 -18 6 -3 10 3 10 15 0 11 7 23 16 27 10 3
14 13 11 25 -4 14 -2 18 10 14 8 -3 17 -6 19 -6 2 0 4 -8 4 -17 0 -15 2 -15
14 2 13 18 14 18 25 -4 14 -25 25 -20 27 12 1 12 5 31 9 41 7 16 5 18 -13 14
-25 -7 -25 -7 -12 26 7 21 6 26 -5 26 -8 0 -15 7 -15 15 0 15 90 65 117 65 6
0 30 17 52 38 28 26 41 46 41 65 0 30 -11 35 -31 11 -15 -18 -54 -39 -91 -48
-21 -5 -28 -3 -28 9 0 8 7 15 15 15 9 0 12 6 9 15 -7 17 -34 21 -34 5 0 -5 -7
-10 -15 -10 -9 0 -12 6 -8 16 8 20 -69 99 -122 125 -41 20 -153 50 -183 48 -9
0 -38 -11 -63 -25z m301 -199 c-7 -8 -16 -12 -21 -9 -13 8 -1 24 18 24 13 0
13 -3 3 -15z m-234 -211 c-4 -9 -1 -23 6 -31 10 -13 6 -14 -28 -7 -35 6 -59
22 -49 32 2 3 19 8 37 12 18 4 35 8 37 9 2 1 0 -6 -3 -15z m191 -40 c-3 -3
-12 -4 -19 -1 -8 3 -5 6 6 6 11 1 17 -2 13 -5z m-222 -34 c-10 -11 -23 -20
-28 -20 -13 0 24 39 37 39 5 1 1 -8 -9 -19z"/>
<path d="M6170 10188 c-80 -34 -170 -84 -175 -97 -3 -9 2 -21 11 -28 18 -13
25 -71 10 -80 -5 -4 -6 -1 -3 5 5 7 -6 8 -33 5 -27 -4 -40 -2 -40 6 0 7 -8 11
-17 10 -10 -2 -34 11 -53 29 -19 18 -36 28 -38 22 -14 -41 52 -119 121 -144
42 -16 48 -21 43 -41 -4 -17 1 -27 21 -41 14 -11 34 -27 45 -36 16 -16 22 -15
20 3 -1 3 19 -1 43 -10 40 -14 45 -14 63 2 10 9 27 17 38 16 10 0 13 -3 7 -6
-20 -7 -15 -33 6 -33 10 0 21 9 24 20 4 15 14 20 42 20 29 0 36 3 33 18 -1 9
1 22 4 28 5 7 -4 9 -25 6 -26 -4 -30 -2 -19 9 6 7 12 20 12 29 0 18 -66 24
-117 11 -36 -10 -93 17 -93 45 0 10 -6 14 -14 11 -20 -8 -28 4 -14 20 9 11 9
16 -1 23 -9 5 0 10 28 15 22 4 43 11 46 15 3 5 11 7 18 5 7 -2 27 -6 46 -9 19
-3 37 -9 40 -13 3 -5 50 -9 104 -8 55 0 101 -3 103 -6 6 -10 102 -59 114 -59
20 0 9 31 -23 67 -18 21 -43 52 -55 70 -12 17 -50 50 -83 72 -59 39 -64 41
-138 40 -42 0 -87 -5 -101 -11z"/>
<path d="M3226 10174 c-9 -22 -8 -24 9 -18 8 4 15 12 15 20 0 19 -16 18 -24
-2z"/>
<path d="M10145 10148 c-22 -66 -35 -132 -32 -162 4 -35 17 -63 17 -37 0 8 5
9 18 2 16 -8 21 -5 32 24 7 18 24 38 38 44 23 11 23 13 8 30 -21 23 -21 52 -1
45 8 -4 15 -1 15 5 0 6 -9 11 -20 11 -13 0 -22 9 -26 25 -7 26 -41 35 -49 13z"/>
<path d="M3154 10105 c-3 -14 -5 -28 -3 -30 8 -7 79 -9 79 -2 1 45 0 48 -20
42 -12 -4 -27 -1 -35 5 -11 10 -15 7 -21 -15z"/>
<path d="M3241 10114 c0 -11 3 -14 6 -6 3 7 2 16 -1 19 -3 4 -6 -2 -5 -13z"/>
<path d="M6090 10001 c0 -17 18 -21 24 -6 3 9 0 15 -9 15 -8 0 -15 -4 -15 -9z"/>
<path d="M2870 9982 c6 -13 14 -21 18 -18 3 4 -2 14 -12 24 -18 16 -18 16 -6
-6z"/>
<path d="M10466 9981 c-4 -7 -5 -15 -2 -18 9 -9 19 4 14 18 -4 11 -6 11 -12 0z"/>
<path d="M6646 9791 c-9 -14 29 -55 42 -47 18 11 14 34 -7 46 -24 12 -28 12
-35 1z"/>
<path d="M6980 9757 c0 -8 6 -14 14 -14 8 0 12 6 9 14 -3 7 -9 13 -14 13 -5 0
-9 -6 -9 -13z"/>
<path d="M6076 9743 c-6 -14 -5 -15 5 -6 7 7 10 15 7 18 -3 3 -9 -2 -12 -12z"/>
<path d="M7538 9692 c-10 -2 -18 -7 -18 -12 0 -10 65 -8 75 2 7 7 -34 15 -57
10z"/>
<path d="M10051 9654 c0 -11 3 -14 6 -6 3 7 2 16 -1 19 -3 4 -6 -2 -5 -13z"/>
<path d="M6728 9653 c7 -3 16 -2 19 1 4 3 -2 6 -13 5 -11 0 -14 -3 -6 -6z"/>
<path d="M7124 9605 c-9 -22 1 -29 15 -11 8 10 9 16 1 21 -5 3 -13 -1 -16 -10z"/>
<path d="M7380 9550 c0 -8 -9 -10 -24 -6 -14 3 -27 2 -30 -3 -8 -13 37 -22 73
-15 28 6 45 24 22 24 -5 0 -16 3 -25 6 -9 4 -16 1 -16 -6z"/>
<path d="M3541 9501 c0 -28 4 -62 9 -76 10 -26 -4 -75 -22 -75 -4 0 -8 -11 -8
-25 0 -18 4 -23 15 -19 8 4 15 12 15 20 0 8 7 14 15 14 31 0 46 87 21 125 -8
12 -16 35 -18 50 -6 50 -25 40 -27 -14z"/>
<path d="M7470 9525 c7 -8 17 -15 22 -15 6 0 5 7 -2 15 -7 8 -17 15 -22 15 -6
0 -5 -7 2 -15z"/>
<path d="M7425 9520 c-19 -8 -19 -9 3 -9 12 -1 22 4 22 9 0 6 -1 10 -2 9 -2 0
-12 -4 -23 -9z"/>
<path d="M7514 9509 c-3 -5 1 -9 8 -9 7 0 19 -12 26 -27 16 -36 15 -47 -3 -31
-50 45 -65 49 -65 17 0 -16 5 -20 20 -16 16 4 18 2 10 -13 -15 -28 -13 -29 30
-25 29 3 38 0 33 -8 -4 -8 -1 -7 9 1 11 9 18 10 23 2 11 -18 25 -11 25 15 0
25 -14 33 -25 15 -12 -19 -35 3 -35 34 0 23 -6 34 -25 43 -14 6 -27 7 -31 2z"/>
<path d="M7263 9483 c-7 -2 -13 -12 -13 -20 0 -14 3 -14 20 2 11 10 20 13 20
7 0 -7 5 -12 10 -12 6 0 10 7 10 15 0 15 -22 19 -47 8z"/>
<path d="M7426 9425 c7 -17 22 -19 42 -6 11 7 10 10 -3 15 -29 11 -45 7 -39
-9z"/>
<path d="M7376 9385 c4 -8 11 -15 16 -15 6 0 5 6 -2 15 -7 8 -14 15 -16 15 -2
0 -1 -7 2 -15z"/>
<path d="M7512 9380 c-9 -15 -8 -17 7 -13 11 3 22 0 25 -6 4 -6 11 -11 16 -11
14 0 2 24 -18 37 -15 9 -21 7 -30 -7z"/>
<path d="M7440 9320 c0 -5 7 -7 15 -4 8 4 15 8 15 10 0 2 -7 4 -15 4 -8 0 -15
-4 -15 -10z"/>
<path d="M7550 9314 c0 -8 5 -12 10 -9 6 3 10 10 10 16 0 5 -4 9 -10 9 -5 0
-10 -7 -10 -16z"/>
<path d="M3482 9280 c-7 -11 -8 -20 -3 -20 9 0 24 30 18 36 -1 2 -8 -6 -15
-16z"/>
<path d="M8006 9274 c-22 -21 -20 -27 4 -12 11 7 20 16 20 20 0 12 -7 10 -24
-8z"/>
<path d="M9913 9275 c-7 -8 -13 -26 -13 -40 0 -16 -6 -25 -15 -25 -10 0 -15
-10 -15 -30 0 -22 5 -30 18 -30 9 0 32 -9 51 -21 18 -11 36 -17 40 -13 3 4 0
9 -6 11 -7 3 -13 10 -13 18 0 7 -7 18 -15 25 -8 7 -13 16 -10 20 3 5 1 11 -4
14 -5 3 -7 24 -4 46 6 44 4 46 -14 25z"/>
<path d="M7524 9265 c24 -18 39 -20 34 -2 -3 6 -15 13 -29 15 -23 2 -23 2 -5
-13z"/>
<path d="M7576 9262 c-10 -16 1 -32 22 -32 11 0 13 3 6 8 -6 4 -13 14 -16 22
-3 10 -6 11 -12 2z"/>
<path d="M8047 9253 c-8 -13 3 -53 14 -53 6 0 12 7 16 16 6 17 -21 51 -30 37z"/>
<path d="M5506 9224 c-10 -27 -7 -44 8 -38 18 7 28 54 11 54 -7 0 -16 -7 -19
-16z"/>
<path d="M7720 9231 c0 -5 5 -13 10 -16 6 -3 10 -2 10 4 0 5 -4 13 -10 16 -5
3 -10 2 -10 -4z"/>
<path d="M5475 9160 c-4 -7 -2 -16 6 -21 18 -11 23 -4 11 17 -7 12 -11 13 -17
4z"/>
<path d="M10000 9121 c0 -6 4 -13 10 -16 6 -3 7 1 4 9 -7 18 -14 21 -14 7z"/>
<path d="M10130 9120 c0 -5 5 -10 10 -10 6 0 10 5 10 10 0 6 -4 10 -10 10 -5
0 -10 -4 -10 -10z"/>
<path d="M8228 9109 c-15 -8 -16 -13 -6 -29 11 -16 9 -22 -7 -34 -11 -9 -27
-16 -36 -16 -20 0 -44 -26 -32 -33 5 -3 15 -2 23 4 8 5 25 9 37 9 16 0 25 11
37 47 17 50 12 68 -16 52z"/>
<path d="M10090 9110 c-8 -5 -10 -10 -5 -10 6 0 17 5 25 10 8 5 11 10 5 10 -5
0 -17 -5 -25 -10z"/>
<path d="M8300 9024 c0 -4 8 -13 18 -21 9 -8 12 -12 7 -10 -6 3 -19 -1 -30 -9
-11 -8 -14 -14 -6 -14 20 0 -7 -30 -36 -41 -13 -5 -23 -13 -23 -19 0 -13 37
-13 45 1 5 6 11 5 19 -6 10 -14 13 -12 29 15 10 16 13 30 8 30 -6 0 -11 -4
-11 -10 0 -5 -7 -10 -17 -10 -14 0 -14 2 2 20 10 12 26 18 35 15 27 -9 19 38
-9 53 -27 14 -31 15 -31 6z"/>
<path d="M7948 9013 c7 -3 16 -2 19 1 4 3 -2 6 -13 5 -11 0 -14 -3 -6 -6z"/>
<path d="M8243 8998 c1 -6 -9 -17 -21 -24 -39 -20 -48 -32 -27 -40 12 -5 23 0
35 16 11 15 22 20 30 15 8 -5 11 -4 6 3 -3 6 -1 14 5 18 8 4 7 9 -2 15 -19 12
-29 11 -26 -3z"/>
<path d="M7000 8954 c0 -8 5 -12 10 -9 6 3 10 10 10 16 0 5 -4 9 -10 9 -5 0
-10 -7 -10 -16z"/>
<path d="M6365 8950 c4 -6 14 -8 23 -6 13 4 17 -1 19 -21 0 -16 -2 -21 -7 -13
-4 7 -16 9 -28 6 -11 -4 -23 -3 -26 2 -8 13 -54 3 -52 -11 1 -13 -6 -17 -29
-17 -16 0 -16 20 0 32 15 12 -23 9 -82 -4 -30 -7 -53 -18 -53 -25 0 -7 -8 -13
-17 -13 -21 -1 -55 -24 -47 -32 2 -3 -5 -6 -18 -6 -40 -2 -55 -7 -95 -35 -22
-15 -44 -27 -51 -27 -7 0 -12 -4 -12 -9 0 -5 -11 -12 -24 -15 -13 -3 -44 -22
-67 -42 -24 -19 -51 -41 -59 -47 -16 -13 -60 -18 -60 -7 0 9 -32 6 -47 -3 -7
-4 -20 0 -30 10 -37 37 -173 19 -173 -23 0 -8 -7 -14 -16 -12 -25 4 -27 -15
-4 -40 11 -11 20 -33 20 -47 0 -15 6 -25 14 -25 8 0 16 -7 20 -15 3 -9 0 -15
-10 -15 -28 0 -4 -18 33 -25 21 -4 45 -12 53 -19 19 -17 60 -27 60 -15 0 15
26 10 40 -7 19 -21 55 -41 44 -22 -4 7 11 -2 34 -20 23 -19 42 -38 42 -43 0
-5 11 -9 24 -9 14 0 31 -6 39 -14 14 -15 111 -25 123 -13 4 4 14 1 22 -5 11
-10 17 -8 29 7 13 19 15 19 24 3 12 -22 39 -23 39 -2 0 24 25 11 28 -15 2 -12
10 -25 17 -27 8 -3 11 -13 9 -22 -5 -15 -4 -15 6 1 6 9 18 17 27 17 9 0 13 6
10 15 -4 8 -1 17 5 21 7 4 6 9 -3 15 -20 12 3 11 37 -1 27 -11 47 -5 28 8 -6
4 -14 22 -17 40 -6 30 -4 33 23 39 19 3 30 12 30 22 0 14 -2 14 -10 1 -8 -13
-10 -13 -10 2 0 9 6 18 12 20 7 3 13 13 13 24 0 15 6 18 30 16 16 -2 35 -12
42 -22 16 -23 50 -16 59 13 6 18 7 18 16 4 5 -10 17 -17 26 -17 15 0 15 2 2
10 -9 6 -10 10 -3 10 6 0 18 -6 25 -14 12 -11 17 -11 37 5 12 10 20 23 17 28
-10 15 53 25 69 11 8 -7 12 -16 9 -21 -3 -5 -1 -9 5 -9 5 0 11 -8 13 -17 2
-12 10 -7 28 20 32 47 38 49 88 27 34 -15 48 -17 79 -8 33 9 39 8 54 -11 18
-23 50 -23 102 -2 41 16 47 14 47 -17 l0 -28 118 1 c64 0 125 -4 135 -10 21
-12 22 -34 2 -41 -22 -9 -7 -26 16 -19 23 8 24 -1 4 -21 -12 -12 -12 -19 -2
-35 8 -13 9 -22 2 -27 -6 -4 -11 -14 -10 -22 1 -61 125 -107 158 -60 12 18 21
21 46 15 19 -4 31 -3 31 4 0 6 7 8 15 5 9 -4 15 0 15 10 0 21 10 20 25 -1 11
-14 15 -15 28 -4 9 7 13 19 10 27 -8 22 26 29 57 11 27 -16 29 -16 51 8 24 25
88 37 73 14 -4 -7 0 -10 10 -7 10 1 17 8 17 13 0 14 35 26 57 19 12 -4 13 -3
4 3 -18 13 -4 43 19 40 16 -2 42 27 55 61 1 1 9 0 18 -4 9 -3 14 -10 11 -14
-3 -4 2 -10 10 -14 8 -3 15 -2 15 3 0 5 16 16 35 25 22 11 35 24 35 36 0 10 5
22 10 25 6 3 10 16 10 29 0 16 10 27 37 40 l37 18 -24 19 c-53 43 -87 59 -122
59 -26 0 -38 4 -38 14 0 23 -22 31 -32 12 -6 -10 -22 -16 -48 -16 -23 0 -40
-5 -40 -11 0 -8 -6 -7 -17 2 -11 9 -14 10 -9 2 5 -9 2 -11 -8 -7 -9 3 -16 12
-16 20 0 8 -4 14 -10 14 -5 0 -10 -4 -10 -10 0 -15 -40 -12 -46 4 -3 8 -15 17
-27 20 -33 9 -127 101 -127 123 0 15 -11 22 -47 31 -30 6 -52 7 -58 1 -14 -14
-25 -11 -25 9 -1 15 -2 15 -15 -2 -15 -19 -15 -19 -15 3 0 15 -4 20 -12 14
-23 -15 -59 -10 -53 7 3 11 -2 15 -19 15 -24 0 -30 -25 -8 -33 7 -2 9 -8 6
-14 -4 -6 -16 1 -30 17 -12 15 -27 24 -33 21 -5 -4 -14 2 -20 11 -6 10 -11 12
-11 6 0 -19 -50 -16 -50 2 0 8 -6 15 -14 15 -8 0 -21 3 -29 6 -10 3 -17 -4
-22 -23 -6 -21 -9 -23 -12 -10 -3 9 -11 17 -18 17 -7 0 -15 8 -17 17 -3 15 -5
15 -21 -2 -14 -13 -21 -15 -26 -6 -4 6 -15 9 -24 6 -10 -4 -20 1 -28 13 -12
18 -14 19 -36 5 -21 -14 -23 -14 -23 1 0 9 -3 16 -6 16 -20 0 -102 -25 -114
-35 -27 -21 -44 -23 -113 -10 -37 7 -67 10 -67 6 1 -3 7 -17 15 -31 17 -30 18
-40 4 -40 -5 0 -8 4 -4 9 3 6 -11 22 -32 37 -21 14 -30 24 -20 21 11 -4 17 -1
17 8 0 8 -6 15 -12 15 -22 0 -41 -17 -34 -29 4 -6 0 -11 -8 -11 -9 0 -16 7
-16 16 0 11 -6 14 -22 8 -36 -12 -70 -6 -85 16 -15 21 -80 30 -68 10z m83 -48
l24 -37 -31 29 c-30 29 -39 46 -23 46 4 -1 18 -18 30 -38z m742 -2 c0 -5 -7
-10 -15 -10 -8 0 -15 5 -15 10 0 6 7 10 15 10 8 0 15 -4 15 -10z m-85 -10 c3
-5 2 -10 -3 -10 -5 0 -20 -9 -33 -21 -17 -14 -25 -17 -28 -8 -2 7 1 15 7 17 6
2 8 10 5 18 -6 16 42 20 52 4z m-325 -80 c0 -12 -11 -20 -32 -24 -17 -3 -33
-4 -36 -1 -3 3 2 5 10 5 15 0 32 34 29 54 -1 5 5 4 13 -4 9 -7 16 -20 16 -30z
m-5 -60 c1 -13 -5 -20 -16 -20 -27 0 -35 21 -14 36 21 16 28 12 30 -16z m20
-50 c-3 -5 -10 -10 -16 -10 -5 0 -9 5 -9 10 0 6 7 10 16 10 8 0 12 -4 9 -10z
m525 -250 c0 -5 -5 -10 -11 -10 -5 0 -7 -4 -4 -10 3 -5 1 -10 -4 -10 -6 0 -11
9 -11 20 0 11 7 20 15 20 8 0 15 -4 15 -10z m-1250 -74 c0 -3 -4 -8 -10 -11
-5 -3 -10 -1 -10 4 0 6 5 11 10 11 6 0 10 -2 10 -4z m85 -26 c-3 -5 -12 -10
-18 -10 -7 0 -6 4 3 10 19 12 23 12 15 0z m1165 -4 c0 -3 -4 -8 -10 -11 -5 -3
-10 -1 -10 4 0 6 5 11 10 11 6 0 10 -2 10 -4z m34 -5 c8 -12 -21 -48 -30 -38
-5 4 -2 12 5 16 7 5 10 14 7 20 -4 6 -3 11 3 11 5 0 12 -4 15 -9z m-19 -100
c10 -17 -12 -21 -25 -6 -10 12 -10 15 3 15 9 0 18 -4 22 -9z"/>
<path d="M8310 8873 c-10 -12 -11 -18 -2 -21 6 -2 22 -12 34 -22 l23 -19 -21
-1 c-26 0 -39 -36 -17 -44 30 -12 45 -7 40 14 -3 13 -1 18 6 13 7 -4 8 0 4 11
-5 13 -1 19 12 23 12 3 17 11 14 19 -3 8 -9 11 -14 8 -5 -3 -9 4 -9 15 0 16
-6 21 -27 21 -16 -1 -35 -8 -43 -17z"/>
<path d="M6686 8495 c-10 -26 -7 -31 14 -32 27 -2 31 9 10 30 -16 16 -18 16
-24 2z"/>
<path d="M6597 8424 c-3 -3 1 -13 9 -21 8 -9 18 -12 21 -9 4 4 0 13 -8 21 -8
9 -18 13 -22 9z"/>
<path d="M6680 8410 c-9 -6 -10 -10 -3 -10 6 0 15 5 18 10 8 12 4 12 -15 0z"/>
<path d="M7160 8410 c0 -5 5 -10 10 -10 6 0 10 5 10 10 0 6 -4 10 -10 10 -5 0
-10 -4 -10 -10z"/>
<path d="M9695 8400 c-3 -5 -2 -10 4 -10 5 0 13 5 16 10 3 6 2 10 -4 10 -5 0
-13 -4 -16 -10z"/>
<path d="M6195 8280 c10 -11 23 -20 28 -20 6 0 1 9 -11 20 -12 11 -24 20 -28
20 -4 0 1 -9 11 -20z"/>
<path d="M7250 8236 c0 -2 7 -7 16 -10 8 -3 12 -2 9 4 -6 10 -25 14 -25 6z"/>
<path d="M7245 8198 c-11 -28 2 -48 27 -44 13 3 26 5 31 5 11 1 8 31 -3 31 -5
0 -10 -7 -10 -16 0 -20 -19 -8 -30 20 -7 19 -9 19 -15 4z"/>
<path d="M9621 8194 c-7 -8 -10 -18 -6 -22 4 -4 10 -1 12 6 3 6 11 12 19 12 9
0 12 5 9 10 -8 14 -18 12 -34 -6z"/>
<path d="M9611 8128 c-20 -24 -22 -31 -10 -39 28 -18 44 -4 44 39 0 39 -3 39
-34 0z"/>
<path d="M9576 8034 c-9 -23 -8 -24 14 -24 11 0 19 6 18 13 -2 8 7 11 27 10
25 -2 27 -1 10 7 -32 14 -62 11 -69 -6z"/>
<path d="M6625 8030 c-56 -6 -106 -28 -113 -49 -3 -9 0 -11 8 -6 10 6 12 3 8
-12 -4 -14 -1 -20 9 -19 9 0 19 -10 25 -24 5 -13 6 -21 2 -17 -4 4 -13 -2 -21
-13 -8 -11 -21 -20 -29 -20 -8 0 -17 -13 -20 -30 -4 -17 -13 -30 -21 -30 -9 0
-13 -8 -11 -22 2 -18 8 -22 27 -20 15 2 21 0 16 -7 -3 -6 -11 -9 -16 -6 -5 4
-9 0 -9 -8 0 -8 19 -24 43 -35 33 -17 37 -21 19 -22 -15 0 -22 -5 -19 -12 2
-7 11 -12 20 -10 11 2 15 -2 12 -11 -4 -9 5 -13 30 -14 20 -1 41 -6 48 -11 7
-6 29 -13 50 -17 31 -6 37 -4 37 10 0 11 -6 15 -18 11 -10 -4 -27 1 -38 9 -19
15 -15 23 21 39 16 7 -18 27 -37 22 -14 -3 -16 0 -8 14 5 9 6 20 3 24 -3 3 1
6 10 6 8 0 17 6 20 13 2 6 7 9 11 6 4 -3 2 -18 -3 -33 -7 -17 -7 -26 -1 -26 6
0 10 5 10 10 0 6 6 10 13 9 27 -3 36 2 30 17 -5 14 -3 14 16 3 15 -10 21 -24
21 -47 0 -23 4 -32 13 -29 6 2 35 -7 62 -21 62 -32 60 -31 52 -38 -8 -8 -67
15 -85 33 -18 18 -36 16 -63 -5 -15 -13 -19 -21 -11 -26 7 -4 12 -3 12 3 0 5
9 13 20 16 26 8 93 -32 86 -51 -7 -17 26 -19 57 -3 30 16 30 15 17 39 -10 18
-9 22 9 27 20 5 20 5 1 26 -18 19 -18 21 -2 33 15 11 15 14 -8 34 -24 20 -24
21 -2 10 28 -14 39 -37 24 -52 -13 -13 13 -38 38 -37 8 0 4 5 -10 11 l-25 11
30 7 c36 8 69 -6 61 -26 -6 -15 11 -18 38 -8 9 3 13 10 10 16 -3 5 2 18 12 29
16 18 16 19 -2 19 -11 0 -29 6 -40 14 -18 13 -22 12 -38 -9 -16 -21 -54 -25
-41 -5 3 5 1 12 -5 15 -14 8 6 35 26 35 7 0 18 9 24 20 6 11 18 20 28 20 13 0
9 7 -14 28 -25 21 -31 34 -28 56 3 32 15 47 21 29 6 -17 23 -16 23 1 0 11 10
13 42 9 48 -7 46 7 -5 34 -47 24 -104 32 -162 23 -36 -6 -56 -5 -71 5 -11 7
-45 15 -75 17 -30 3 -67 9 -84 14 -16 5 -52 7 -80 4z m140 -159 c3 -5 1 -12
-5 -16 -5 -3 -10 1 -10 9 0 18 6 21 15 7z m10 -85 c12 -12 12 -15 0 -20 -8 -3
-22 -3 -30 0 -11 5 -12 9 -2 20 15 17 16 17 32 0z m90 -6 c3 -5 -1 -10 -9 -10
-9 0 -16 5 -16 10 0 6 4 10 9 10 6 0 13 -4 16 -10z m-5 -46 c0 -8 -4 -12 -10
-9 -5 3 -10 10 -10 16 0 5 5 9 10 9 6 0 10 -7 10 -16z m40 -84 c0 -5 -5 -10
-11 -10 -5 0 -7 5 -4 10 3 6 8 10 11 10 2 0 4 -4 4 -10z"/>
<path d="M9410 8010 c0 -5 4 -10 9 -10 6 0 13 5 16 10 3 6 -1 10 -9 10 -9 0
-16 -4 -16 -10z"/>
<path d="M9325 7990 c-3 -5 -1 -10 4 -10 6 0 11 5 11 10 0 6 -2 10 -4 10 -3 0
-8 -4 -11 -10z"/>
<path d="M9702 7946 c3 -15 1 -29 -3 -32 -5 -3 -9 -16 -9 -30 0 -17 6 -24 18
-24 24 0 33 10 24 24 -4 6 -7 26 -7 45 0 20 -6 36 -14 39 -10 3 -13 -2 -9 -22z"/>
<path d="M6151 7941 c-10 -7 -11 -13 -2 -30 13 -24 22 -26 39 -9 31 31 1 63
-37 39z"/>
<path d="M7500 7839 c0 -3 9 -9 19 -12 13 -3 18 0 15 7 -5 13 -34 18 -34 5z"/>
<path d="M9447 7843 c-10 -10 -8 -25 2 -18 5 3 12 1 16 -5 8 -12 25 -4 25 12
0 6 -3 8 -7 5 -3 -4 -11 -2 -18 3 -7 5 -15 7 -18 3z"/>
<path d="M7312 7815 c-7 -8 -21 -15 -31 -15 -10 0 -18 -7 -18 -15 0 -8 4 -15
9 -15 5 0 7 -4 3 -9 -3 -5 -1 -12 5 -16 6 -3 13 0 16 9 3 8 12 12 20 9 8 -3
14 1 14 10 0 8 5 17 12 19 12 4 4 38 -9 38 -4 -1 -14 -7 -21 -15z"/>
<path d="M9263 7823 c-7 -2 -13 -11 -13 -19 0 -12 4 -12 20 -2 31 20 26 35 -7
21z"/>
<path d="M6353 7799 c-15 -15 -45 -18 -66 -7 -10 5 -24 5 -35 -1 -15 -8 -14
-11 11 -20 16 -6 33 -9 38 -5 5 3 9 -2 9 -12 0 -13 3 -14 14 -4 12 9 18 7 33
-9 22 -26 37 -27 23 -1 -8 15 -6 21 10 30 27 15 26 40 -3 40 -13 0 -28 -5 -34
-11z"/>
<path d="M9424 7801 c3 -5 -1 -11 -9 -15 -8 -3 -15 -12 -15 -21 0 -8 -7 -15
-15 -15 -9 0 -18 -7 -21 -15 -4 -8 -10 -15 -16 -15 -14 0 -58 -54 -53 -66 2
-8 -9 -11 -33 -9 -20 1 -27 0 -14 -2 31 -6 27 -22 -7 -29 -20 -4 -31 -14 -36
-31 -5 -20 -9 -23 -20 -13 -8 7 -13 24 -11 40 3 27 2 29 -28 23 -41 -8 -56
-21 -56 -49 0 -23 -10 -31 -23 -17 -4 3 -2 12 4 20 9 10 8 13 -5 13 -10 0 -15
-4 -12 -9 3 -5 -2 -15 -11 -22 -14 -12 -16 -12 -11 1 8 23 -41 20 -53 -3 -6
-9 -15 -15 -20 -11 -6 3 -16 -1 -22 -9 -7 -8 -21 -17 -31 -19 -28 -5 -30 -24
-4 -33 22 -7 22 -7 3 -12 -11 -3 -29 -15 -40 -27 -11 -13 -25 -21 -32 -19 -6
2 -14 -1 -18 -6 -3 -7 2 -11 14 -11 25 0 36 -17 21 -35 -7 -8 -7 -15 -1 -19 5
-3 8 -14 6 -24 -2 -17 -21 -20 -61 -7 -19 6 -24 1 -34 -30 -7 -22 -17 -34 -24
-32 -7 3 -19 1 -27 -3 -11 -7 -10 -10 4 -16 17 -6 24 -34 8 -34 -4 0 -6 -12
-3 -26 5 -27 1 -28 -57 -6 -9 3 -12 1 -7 -6 4 -7 3 -12 -2 -12 -5 0 -8 -16 -6
-35 3 -38 -5 -48 -31 -39 -11 5 -13 9 -5 14 7 5 9 20 5 43 -4 20 -12 34 -17
31 -5 -3 -7 -13 -4 -21 4 -10 1 -13 -13 -8 -20 6 -51 -3 -51 -15 0 -4 15 -11
33 -15 29 -6 30 -7 11 -15 -25 -10 -41 -30 -25 -30 6 0 11 5 11 12 0 6 6 3 14
-7 17 -24 10 -45 -15 -45 -10 0 -19 -5 -19 -11 0 -17 -30 -41 -44 -36 -21 8
-50 -17 -43 -37 5 -12 0 -16 -21 -17 -15 -1 -30 -1 -34 0 -8 1 -12 -21 -9 -51
2 -12 -3 -16 -12 -12 -17 6 -31 -47 -16 -57 6 -3 -4 -6 -20 -6 -17 0 -39 -7
-49 -16 -10 -10 -22 -14 -25 -11 -8 8 -46 -36 -47 -52 0 -7 -11 -15 -25 -18
-14 -4 -25 -11 -25 -16 0 -6 -7 -10 -16 -10 -9 0 -14 -6 -11 -12 2 -7 10 -12
16 -10 6 1 11 -3 11 -8 0 -6 -11 -8 -27 -4 -21 6 -25 4 -20 -9 4 -10 -4 -19
-24 -27 -16 -7 -32 -10 -36 -6 -9 8 -34 -14 -27 -25 3 -5 1 -9 -5 -9 -5 0 -9
-12 -8 -27 1 -20 -2 -27 -12 -25 -18 4 -32 -18 -25 -40 3 -12 0 -18 -10 -18
-9 0 -16 -5 -16 -11 0 -5 5 -7 10 -4 6 3 10 1 10 -6 0 -8 -10 -9 -31 -5 -25 5
-35 1 -60 -26 -16 -18 -44 -39 -61 -48 -18 -8 -38 -26 -44 -38 -20 -39 -31
-47 -50 -31 -14 11 -18 11 -29 -4 -15 -21 -29 -22 -46 0 -13 15 -12 16 9 11
15 -4 22 -2 22 9 0 9 6 13 15 9 9 -3 24 3 35 14 11 11 25 20 31 20 5 0 8 4 5
8 -3 5 -19 7 -36 4 -29 -4 -41 10 -20 23 16 10 12 45 -6 52 -18 6 -35 -13 -28
-32 8 -19 -14 -65 -30 -65 -15 0 -44 -40 -29 -40 19 -1 -24 -20 -44 -20 -29 0
-29 14 -2 34 24 16 18 36 -11 36 -23 0 -16 37 9 44 9 2 0 4 -19 3 -32 -2 -35
-5 -35 -32 0 -19 -8 -37 -22 -48 -22 -18 -23 -18 -47 8 -14 15 -30 24 -35 20
-6 -3 -11 0 -11 7 0 9 -15 13 -47 13 -48 0 -63 -8 -63 -34 0 -11 4 -10 13 4
10 13 16 15 21 6 10 -16 -12 -41 -35 -41 -12 0 -19 -7 -19 -19 0 -11 -6 -23
-12 -27 -7 -4 -10 -4 -6 1 4 4 3 16 -3 27 -13 25 -65 22 -63 -4 2 -28 -97 -56
-116 -33 -5 6 -23 10 -39 9 -17 -1 -35 4 -42 12 -6 8 -15 11 -20 8 -14 -8 -10
-34 5 -34 8 0 16 -5 18 -10 2 -6 13 -12 26 -13 14 -1 22 -8 22 -19 0 -22 1
-22 -44 -3 -20 9 -41 13 -46 10 -6 -4 -10 -2 -10 4 0 5 4 11 10 13 6 2 6 9 0
17 -7 12 -11 12 -24 2 -9 -7 -13 -17 -10 -22 7 -12 -3 -11 -26 1 -12 7 -27 7
-45 0 -20 -8 -30 -7 -41 4 -11 11 -21 12 -42 5 -19 -6 -38 -6 -54 0 -28 10
-71 4 -63 -9 3 -5 -8 -5 -24 0 -16 4 -32 6 -35 2 -4 -3 -32 -6 -64 -7 -31 -1
-51 0 -45 2 10 4 9 8 -1 19 -19 18 -26 18 -26 -1 0 -18 -5 -18 -30 -5 -12 7
-16 17 -13 31 4 16 2 20 -8 17 -8 -2 -15 -14 -17 -25 -2 -12 -10 -24 -18 -27
-12 -4 -14 -1 -9 14 7 21 -4 25 -55 21 l-25 -1 23 18 23 18 -20 19 c-12 10
-21 28 -21 40 0 11 -6 30 -14 41 -13 17 -16 17 -30 4 -14 -13 -14 -21 -3 -49
10 -28 10 -34 -6 -45 -9 -7 -17 -18 -17 -25 0 -6 -7 -11 -16 -11 -9 0 -23 -8
-30 -17 -10 -15 -15 -16 -25 -5 -18 17 -49 15 -49 -3 0 -23 -30 -18 -39 7 l-8
22 -12 -23 c-10 -18 -15 -20 -27 -11 -7 7 -11 16 -8 21 3 5 0 9 -5 9 -6 0 -11
-4 -11 -10 0 -18 -26 -11 -48 13 -25 26 -28 43 -9 50 9 4 9 6 -1 6 -7 1 -28
-15 -48 -34 -24 -25 -44 -35 -65 -35 -17 0 -28 4 -24 9 11 19 -17 23 -30 5
-13 -18 -14 -18 -15 -1 0 18 -6 20 -57 17 -18 -1 -33 3 -33 9 0 6 -4 11 -10
11 -5 0 -7 -8 -3 -17 4 -11 -5 -6 -22 12 -25 26 -35 30 -89 30 -44 1 -71 8
-96 23 -19 12 -39 22 -45 22 -5 0 -3 -4 5 -10 8 -5 11 -12 7 -17 -12 -11 -25
15 -20 41 3 13 0 27 -6 30 -6 4 -11 2 -11 -3 0 -15 -37 -14 -44 2 -3 6 -3 2 0
-10 3 -13 1 -23 -5 -23 -6 0 -11 5 -11 11 0 6 -7 9 -15 5 -9 -3 -15 0 -15 8 0
23 -48 66 -75 66 -30 0 -32 13 -4 31 13 9 18 20 14 32 -8 18 -35 24 -35 7 0
-5 -9 -10 -21 -10 -18 0 -20 -4 -15 -25 6 -25 -1 -32 -19 -17 -6 4 -9 5 -7 3
1 -3 -8 -16 -20 -29 l-23 -25 28 5 c22 4 27 2 25 -11 -2 -9 -11 -15 -20 -13
-15 2 -16 0 -3 -24 7 -15 11 -33 8 -42 -4 -10 -2 -13 5 -8 6 3 13 2 17 -4 3
-5 2 -10 -3 -10 -18 0 12 -48 40 -65 16 -9 28 -24 28 -34 0 -11 7 -22 16 -25
8 -3 12 -2 9 4 -3 6 1 10 9 10 20 0 32 -20 17 -29 -7 -5 -2 -12 14 -19 27 -13
45 -9 45 10 0 5 -7 8 -15 4 -8 -3 -15 -1 -15 4 0 6 4 10 9 10 5 0 17 3 27 7
14 5 16 2 10 -20 -3 -15 -1 -29 5 -32 6 -5 4 -12 -8 -20 -16 -12 -15 -13 10
-8 15 3 27 1 27 -5 0 -6 9 -14 20 -17 11 -4 18 -10 15 -15 -3 -5 2 -10 12 -12
15 -3 16 -4 0 -20 -9 -9 -17 -21 -17 -27 0 -16 18 -13 28 5 8 14 10 14 25 0 8
-9 23 -16 33 -16 10 0 14 -3 11 -7 -4 -3 2 -12 13 -20 12 -8 17 -20 13 -30 -4
-9 -2 -14 3 -11 11 6 45 -28 36 -36 -3 -3 2 -6 11 -6 11 0 14 -5 11 -15 -4 -9
3 -24 16 -35 28 -24 44 -26 36 -4 -5 12 -2 15 12 12 12 -3 23 2 30 13 17 26
15 29 -13 29 -28 0 -33 15 -8 24 20 8 54 -26 51 -51 -3 -36 2 -53 17 -53 8 0
17 11 21 25 3 14 9 25 13 25 3 0 18 -11 33 -25 15 -14 35 -25 44 -25 10 0 14
-5 10 -16 -4 -10 -2 -13 6 -8 6 4 17 -1 24 -10 9 -13 17 -15 30 -8 14 8 13 10
-10 16 -14 3 -26 11 -26 17 0 15 -26 39 -34 32 -3 -4 -6 -1 -6 5 0 16 17 24
25 12 3 -5 15 -10 26 -10 29 0 71 -31 64 -47 -3 -9 0 -13 7 -10 7 2 26 -5 41
-16 16 -10 31 -16 35 -12 4 4 1 10 -5 12 -7 3 -13 9 -13 15 0 9 13 9 140 -6
19 -2 38 1 42 7 12 19 36 -11 32 -41 l-4 -27 12 25 c10 18 21 25 43 25 20 0
30 -5 31 -15 2 -34 15 -50 34 -40 15 8 17 6 13 -10 -7 -28 13 -25 41 5 21 23
54 36 42 17 -2 -4 6 -12 19 -18 20 -10 23 -9 20 6 -3 13 5 19 28 23 26 4 36 0
50 -19 10 -13 25 -24 32 -24 7 0 15 -7 19 -15 4 -13 10 -13 47 0 51 18 49 18
49 0 0 -8 9 -15 20 -15 11 0 20 5 20 10 0 19 25 9 54 -20 16 -17 34 -30 40
-30 5 0 1 6 -9 14 -12 9 -16 19 -11 32 7 18 8 18 21 1 13 -18 14 -17 17 5 2
13 11 24 23 26 11 2 25 9 32 14 21 17 142 19 189 3 39 -13 47 -13 81 2 21 10
63 18 93 18 72 2 299 60 370 95 19 10 46 21 60 25 24 8 71 37 98 63 11 10 17
10 28 1 8 -6 14 -7 14 -2 0 17 120 130 151 143 17 7 35 24 40 38 8 20 14 23
38 19 34 -7 58 12 39 31 -9 9 -8 12 4 12 9 0 18 7 22 15 3 8 12 15 21 15 8 0
15 7 15 15 0 8 5 15 10 15 6 0 10 7 10 15 0 9 9 15 22 15 12 0 18 3 15 7 -9 9
53 53 75 53 14 0 18 8 18 34 0 39 19 59 58 58 25 0 72 32 72 49 0 9 40 72 67
106 10 13 26 23 36 23 9 0 17 7 17 15 0 16 7 18 58 15 17 -1 32 3 32 9 0 6 9
11 20 11 28 0 25 17 -5 24 -24 6 -36 36 -15 36 6 0 10 7 10 15 0 13 19 20 43
16 4 -1 13 12 18 29 6 16 15 30 20 30 5 0 9 7 9 15 0 8 7 15 15 15 8 0 15 6
15 13 0 17 30 42 66 55 28 10 29 10 4 11 l-25 2 27 16 c14 9 31 27 37 39 7 16
16 21 30 17 25 -6 44 27 35 62 -5 20 -1 26 20 35 14 5 26 16 26 25 0 8 4 15 9
15 5 0 17 18 27 39 9 22 28 45 41 52 12 7 23 17 23 24 0 17 24 65 33 65 12 0
66 64 67 79 0 8 7 11 20 8 15 -4 22 1 26 19 3 13 10 24 15 24 5 0 9 5 9 11 0
5 -4 7 -10 4 -12 -7 -12 2 -1 30 8 19 8 19 15 -3 6 -19 10 -21 22 -11 8 6 14
8 14 5 0 -4 6 -1 14 6 12 11 11 14 -3 19 -9 4 -22 2 -28 -3 -9 -7 -13 -7 -13
1 0 6 12 14 26 17 16 4 23 12 20 20 -3 8 -1 14 5 14 6 0 9 7 6 14 -4 10 -1 13
9 9 8 -3 21 0 29 7 12 10 15 9 15 -4 0 -9 5 -16 10 -16 6 0 10 6 10 13 0 6 12
23 26 37 17 15 22 26 14 28 -7 3 -16 -1 -20 -9 -7 -10 -11 -10 -24 0 -13 11
-19 11 -31 1 -21 -18 -19 -3 6 32 18 25 19 32 8 39 -10 6 -10 9 -1 9 6 0 12 7
12 15 0 13 4 14 20 5 13 -7 20 -7 20 -1 0 6 6 8 14 5 8 -3 17 -1 20 4 3 5 -9
12 -26 16 -25 5 -29 9 -20 18 15 15 15 28 1 28 -5 0 -8 -4 -5 -9z m-294 -206
c0 -8 -7 -15 -15 -15 -8 0 -15 7 -15 15 0 8 7 15 15 15 8 0 15 -7 15 -15z m25
5 c3 -5 1 -10 -4 -10 -6 0 -11 5 -11 10 0 6 2 10 4 10 3 0 8 -4 11 -10z m14
-46 c3 -16 1 -17 -13 -5 -19 16 -21 34 -3 29 6 -3 14 -13 16 -24z m-169 2 c0
-2 -8 -10 -17 -17 -16 -13 -17 -12 -4 4 13 16 21 21 21 13z m135 -16 c3 -5 1
-10 -4 -10 -6 0 -11 5 -11 10 0 6 2 10 4 10 3 0 8 -4 11 -10z m-215 -85 c0 -2
-12 -16 -26 -31 -17 -16 -24 -19 -20 -9 3 9 6 23 6 31 0 8 9 14 20 14 11 0 20
-2 20 -5z m10 -439 c-14 -14 -24 0 -16 21 6 15 8 15 16 3 6 -9 5 -19 0 -24z
m-3710 -550 c0 -11 -19 -15 -25 -6 -3 5 1 10 9 10 9 0 16 -2 16 -4z m130 -75
c0 -5 -7 -11 -15 -15 -15 -5 -20 5 -8 17 9 10 23 9 23 -2z m245 -71 c3 -5 -1
-10 -9 -10 -9 0 -16 5 -16 10 0 6 4 10 9 10 6 0 13 -4 16 -10z m672 -58 c-10
-10 -17 -24 -17 -30 0 -7 -4 -12 -10 -12 -5 0 -7 7 -4 15 5 11 2 13 -10 9 -9
-3 -16 -1 -16 5 0 10 14 15 33 12 5 -1 6 3 2 8 -3 6 0 19 7 31 l13 20 9 -20
c7 -14 4 -25 -7 -38z m-607 8 c0 -5 -5 -10 -11 -10 -5 0 -7 5 -4 10 3 6 8 10
11 10 2 0 4 -4 4 -10z m70 -11 c0 -8 11 -9 31 -5 26 5 30 4 20 -8 -12 -14 -23
-15 -53 -1 -19 8 -24 25 -8 25 6 0 10 -5 10 -11z m195 -9 c-3 -5 -13 -6 -21
-3 -12 4 -13 8 -3 14 15 9 32 2 24 -11z m-315 -340 c0 -5 -2 -10 -4 -10 -3 0
-8 5 -11 10 -3 6 -1 10 4 10 6 0 11 -4 11 -10z m740 -120 c0 -5 -7 -10 -15
-10 -8 0 -15 -5 -15 -12 0 -6 -2 -9 -5 -6 -3 3 -3 13 1 22 7 17 34 22 34 6z
m300 -34 c0 -7 -9 -16 -20 -19 -11 -3 -20 -1 -20 4 0 5 7 9 15 9 8 0 15 5 15
10 0 6 2 10 5 10 3 0 5 -6 5 -14z m40 -6 c0 -5 -4 -10 -10 -10 -5 0 -10 5 -10
10 0 6 5 10 10 10 6 0 10 -4 10 -10z"/>
<path d="M9717 7795 c-13 -9 -15 -15 -7 -20 14 -8 34 9 29 23 -3 7 -11 6 -22
-3z"/>
<path d="M7369 7793 c-28 -7 -31 -43 -4 -55 13 -6 26 -22 30 -36 5 -21 8 -23
16 -11 20 31 5 113 -20 108 -4 -1 -13 -3 -22 -6z"/>
<path d="M7188 7763 c6 -2 18 -2 25 0 6 3 1 5 -13 5 -14 0 -19 -2 -12 -5z"/>
<path d="M9167 7743 c-11 -10 -8 -25 4 -18 6 4 13 -2 16 -14 3 -11 9 -18 14
-16 4 3 3 17 -3 30 -11 26 -20 30 -31 18z"/>
<path d="M9070 7720 c0 -5 5 -10 10 -10 6 0 10 5 10 10 0 6 -4 10 -10 10 -5 0
-10 -4 -10 -10z"/>
<path d="M9235 7701 c-9 -22 -1 -22 39 -2 l38 20 -36 -2 c-20 -1 -38 -8 -41
-16z"/>
<path d="M4140 7688 c0 -7 4 -19 9 -27 11 -17 23 1 15 23 -7 19 -24 21 -24 4z"/>
<path d="M9415 7679 c-10 -15 3 -25 16 -12 7 7 7 13 1 17 -6 3 -14 1 -17 -5z"/>
<path d="M4180 7630 c0 -11 7 -20 15 -20 17 0 18 2 9 24 -9 23 -24 20 -24 -4z"/>
<path d="M6970 7639 c0 -5 -3 -8 -7 -6 -5 3 -8 -6 -8 -19 0 -13 3 -24 8 -24 4
0 7 6 7 14 0 8 7 22 16 30 14 15 14 16 0 16 -9 0 -16 -5 -16 -11z"/>
<path d="M8895 7630 c-3 -5 3 -10 15 -10 12 0 18 5 15 10 -3 6 -10 10 -15 10
-5 0 -12 -4 -15 -10z"/>
<path d="M9717 7612 c-3 -15 -4 -29 -2 -31 8 -8 25 12 25 29 0 30 -17 32 -23
2z"/>
<path d="M9485 7620 c-3 -5 1 -10 10 -10 9 0 13 5 10 10 -3 6 -8 10 -10 10 -2
0 -7 -4 -10 -10z"/>
<path d="M6766 7604 c-4 -11 -15 -15 -36 -12 -24 4 -27 2 -19 -9 7 -7 25 -13
42 -13 24 0 28 -3 19 -12 -19 -19 -14 -27 18 -26 29 1 41 20 20 33 -6 4 -8 11
-5 16 4 5 1 9 -4 9 -6 0 -11 7 -11 15 0 20 -16 19 -24 -1z"/>
<path d="M8812 7603 c-18 -4 -21 -9 -16 -30 5 -18 3 -24 -5 -19 -11 7 -16 -6
-5 -17 10 -10 34 4 34 20 0 10 7 14 20 10 11 -3 20 -1 20 3 0 15 -12 40 -19
39 -3 -1 -16 -4 -29 -6z"/>
<path d="M4205 7581 c-7 -24 4 -51 21 -51 8 0 14 -5 14 -11 0 -5 4 -8 9 -4 5
3 17 -2 26 -11 9 -9 19 -14 22 -10 3 3 -4 15 -16 25 -13 11 -20 24 -17 29 6
10 -29 52 -44 52 -5 0 -11 -8 -15 -19z"/>
<path d="M6580 7576 c0 -2 7 -7 16 -10 8 -3 12 -2 9 4 -6 10 -25 14 -25 6z"/>
<path d="M8895 7569 c-10 -15 3 -25 16 -12 7 7 7 13 1 17 -6 3 -14 1 -17 -5z"/>
<path d="M6925 7550 l-30 -20 25 -1 c14 0 40 -1 59 -2 37 -2 54 17 24 26 -10
2 -25 7 -33 11 -8 3 -28 -3 -45 -14z"/>
<path d="M9470 7560 c0 -5 5 -10 10 -10 6 0 10 5 10 10 0 6 -4 10 -10 10 -5 0
-10 -4 -10 -10z"/>
<path d="M9726 7563 c-9 -9 -7 -33 3 -33 12 0 22 28 12 34 -5 3 -11 3 -15 -1z"/>
<path d="M9540 7530 c0 -5 5 -10 11 -10 5 0 7 5 4 10 -3 6 -8 10 -11 10 -2 0
-4 -4 -4 -10z"/>
<path d="M8820 7520 c0 -5 5 -10 11 -10 5 0 7 5 4 10 -3 6 -8 10 -11 10 -2 0
-4 -4 -4 -10z"/>
<path d="M8785 7510 c-3 -5 -1 -10 4 -10 6 0 11 5 11 10 0 6 -2 10 -4 10 -3 0
-8 -4 -11 -10z"/>
<path d="M9540 7470 c0 -11 7 -20 15 -20 17 0 18 2 9 24 -9 23 -24 20 -24 -4z"/>
<path d="M4325 7430 c4 -6 11 -8 16 -5 14 9 11 15 -7 15 -8 0 -12 -5 -9 -10z"/>
<path d="M8740 7414 c0 -8 5 -12 10 -9 6 3 10 10 10 16 0 5 -4 9 -10 9 -5 0
-10 -7 -10 -16z"/>
<path d="M4332 7398 c7 -19 38 -22 38 -4 0 10 -9 16 -21 16 -12 0 -19 -5 -17
-12z"/>
<path d="M9750 7390 c-13 -8 -13 -11 -1 -19 9 -6 11 -18 7 -35 -3 -14 -2 -26
3 -26 5 0 12 -10 15 -22 3 -13 3 0 0 27 -3 28 -6 58 -7 68 -1 9 -1 17 -2 17 0
0 -7 -5 -15 -10z"/>
<path d="M4366 7371 c-3 -4 0 -20 7 -34 9 -19 17 -25 30 -21 16 5 18 2 12 -16
-6 -20 -5 -21 14 -11 29 16 26 28 -9 36 -26 6 -29 10 -24 31 5 18 2 24 -9 24
-9 0 -18 -4 -21 -9z"/>
<path d="M4326 7341 c-3 -5 1 -11 9 -15 9 -3 15 0 15 9 0 16 -16 20 -24 6z"/>
<path d="M4441 7270 c-14 -8 -7 -30 9 -30 11 0 21 28 12 34 -5 3 -14 1 -21 -4z"/>
<path d="M4455 7219 c-4 -6 -5 -13 -2 -16 7 -7 27 6 27 18 0 12 -17 12 -25 -2z"/>
<path d="M4489 7174 c-12 -14 -1 -39 33 -75 20 -22 38 -57 38 -74 0 -9 8 -18
18 -22 37 -13 44 -25 26 -44 -16 -18 -16 -19 10 -19 16 0 26 -5 25 -12 -3 -26
1 -38 15 -38 8 0 16 -7 20 -15 3 -8 1 -15 -4 -15 -18 0 -10 -16 14 -29 16 -9
22 -19 19 -32 -4 -12 0 -19 9 -19 8 0 18 -17 24 -42 8 -36 14 -43 46 -54 23
-8 40 -9 43 -3 4 5 12 6 18 3 9 -5 9 -4 0 6 -8 9 -9 19 -3 30 8 15 5 16 -18
12 -24 -5 -26 -4 -13 11 10 13 10 17 1 17 -7 0 -10 7 -7 14 4 9 -2 17 -14 21
-10 4 -19 11 -19 16 0 13 18 11 22 -3 3 -7 7 -4 12 7 4 11 4 16 1 13 -9 -8
-65 48 -65 65 0 8 4 7 10 -3 5 -8 12 -11 16 -7 12 11 -16 36 -44 39 -19 2 -27
8 -25 22 1 19 -49 76 -68 76 -6 0 -8 4 -5 9 3 5 -1 14 -9 21 -8 6 -19 27 -25
46 -6 19 -16 34 -21 34 -5 0 -14 11 -18 24 -11 28 -46 39 -62 20z m261 -344
c-20 -13 -33 -13 -25 0 3 6 14 10 23 10 15 0 15 -2 2 -10z"/>
<path d="M9781 7158 c-1 -16 4 -28 9 -28 12 0 12 8 0 35 -8 18 -9 17 -9 -7z"/>
<path d="M9770 7106 c0 -22 17 -28 24 -10 9 22 8 24 -9 24 -8 0 -15 -6 -15
-14z"/>
<path d="M8490 7020 c0 -5 4 -10 9 -10 6 0 13 5 16 10 3 6 -1 10 -9 10 -9 0
-16 -4 -16 -10z"/>
<path d="M9830 6897 c0 -26 5 -47 10 -47 6 0 8 16 4 43 -9 58 -14 59 -14 4z"/>
<path d="M9841 6824 c0 -11 3 -14 6 -6 3 7 2 16 -1 19 -3 4 -6 -2 -5 -13z"/>
<path d="M9857 6749 c4 -13 8 -18 11 -10 2 7 -1 18 -6 23 -8 8 -9 4 -5 -13z"/>
<path d="M9865 6670 c3 -5 8 -10 11 -10 2 0 4 5 4 10 0 6 -5 10 -11 10 -5 0
-7 -4 -4 -10z"/>
<path d="M4852 6645 c-19 -10 -20 -14 -8 -18 10 -4 20 1 26 13 6 11 9 20 8 19
-2 -1 -13 -7 -26 -14z"/>
<path d="M9881 6613 c0 -4 4 -17 9 -28 8 -19 9 -19 9 2 1 12 -3 25 -9 28 -5 3
-10 3 -9 -2z"/>
<path d="M4850 6590 c0 -5 5 -10 11 -10 5 0 7 5 4 10 -3 6 -8 10 -11 10 -2 0
-4 -4 -4 -10z"/>
<path d="M5256 6575 c-4 -14 -6 -28 -5 -31 0 -4 -5 -11 -13 -16 -10 -7 -10
-11 0 -15 6 -2 12 -11 12 -18 0 -7 7 -16 16 -19 13 -5 15 -2 11 13 -3 14 -1
18 9 14 10 -4 12 0 8 11 -3 9 -1 16 5 16 6 0 11 16 11 35 0 30 -3 35 -24 35
-17 0 -26 -7 -30 -25z"/>
<path d="M5130 6580 c0 -5 5 -10 10 -10 6 0 10 5 10 10 0 6 -4 10 -10 10 -5 0
-10 -4 -10 -10z"/>
<path d="M4970 6554 c0 -8 5 -12 10 -9 6 3 10 10 10 16 0 5 -4 9 -10 9 -5 0
-10 -7 -10 -16z"/>
<path d="M8504 6552 c23 -26 23 -26 23 -7 0 8 -3 13 -5 10 -3 -3 -12 1 -21 7
-10 8 -9 4 3 -10z"/>
<path d="M9892 6520 c0 -19 2 -27 5 -17 2 9 2 25 0 35 -3 9 -5 1 -5 -18z"/>
<path d="M7594 6438 c-4 -5 0 -14 7 -19 20 -13 29 -11 29 5 0 18 -27 29 -36
14z"/>
<path d="M9900 6441 c0 -5 5 -13 10 -16 6 -3 10 -2 10 4 0 5 -4 13 -10 16 -5
3 -10 2 -10 -4z"/>
<path d="M5817 6390 c7 -27 23 -36 34 -19 15 24 10 39 -15 39 -19 0 -23 -4
-19 -20z"/>
<path d="M7095 6400 c-3 -5 -5 -10 -3 -11 42 -10 50 -9 38 6 -14 17 -26 19
-35 5z"/>
<path d="M5085 6390 c3 -5 8 -10 11 -10 2 0 4 5 4 10 0 6 -5 10 -11 10 -5 0
-7 -4 -4 -10z"/>
<path d="M9902 6378 c-19 -19 -14 -44 8 -45 11 -1 20 4 20 12 0 9 -6 12 -15 9
-8 -4 -15 -2 -15 4 0 6 6 12 13 15 6 2 9 7 6 10 -3 4 -11 1 -17 -5z"/>
<path d="M7640 6370 c0 -5 5 -10 10 -10 6 0 10 5 10 10 0 6 -4 10 -10 10 -5 0
-10 -4 -10 -10z"/>
<path d="M5634 6356 c-10 -10 -6 -13 16 -14 21 0 27 3 23 14 -6 17 -24 18 -39
0z"/>
<path d="M5710 6350 c0 -5 5 -10 10 -10 6 0 10 5 10 10 0 6 -4 10 -10 10 -5 0
-10 -4 -10 -10z"/>
<path d="M7147 6334 c-8 -8 1 -24 14 -24 5 0 9 7 9 15 0 15 -12 20 -23 9z"/>
<path d="M6450 6315 c0 -8 5 -15 10 -15 6 0 10 7 10 15 0 8 -4 15 -10 15 -5 0
-10 -7 -10 -15z"/>
<path d="M9923 6298 c-1 -13 7 -42 18 -65 20 -40 19 -63 -2 -63 -5 0 -9 8 -10
18 0 14 -2 14 -9 -3 -4 -11 -4 -24 1 -29 13 -15 11 -28 -3 -20 -9 5 -9 2 1 -9
7 -9 22 -17 33 -17 11 0 18 -5 15 -12 -5 -16 -59 -11 -69 6 -4 6 -8 -1 -8 -16
0 -16 8 -33 19 -39 10 -7 16 -20 14 -29 -3 -10 1 -21 8 -25 9 -6 11 -2 6 14
-4 18 -2 21 15 15 11 -3 18 -2 15 3 -3 5 -1 15 4 23 7 10 8 1 3 -30 -4 -25 -7
-57 -7 -72 -1 -20 -6 -28 -19 -28 -23 0 -23 -9 3 -36 19 -21 20 -24 6 -38 -9
-9 -23 -13 -31 -10 -17 7 -22 -11 -6 -21 17 -10 11 -28 -7 -21 -15 6 -15 4 2
-14 16 -17 16 -20 2 -20 -22 0 -29 -14 -19 -41 7 -19 10 -20 15 -6 11 29 28
20 20 -10 -4 -16 -6 -43 -6 -61 1 -39 -38 -76 -70 -66 -16 5 -19 3 -14 -10 5
-11 0 -20 -16 -27 -21 -9 -21 -9 3 -5 14 2 34 7 45 12 18 7 19 6 5 -10 -8 -10
-14 -28 -15 -40 0 -11 -7 -22 -15 -22 -32 -3 -59 -17 -65 -31 -8 -23 0 -26 24
-11 17 10 23 10 33 0 11 -11 10 -12 -4 -7 -20 8 -25 -10 -6 -21 8 -5 6 -11 -6
-19 -15 -11 -15 -14 0 -25 15 -13 44 -62 44 -76 0 -3 -11 -3 -25 0 -24 6 -25
5 -13 -14 7 -11 21 -23 30 -26 23 -7 23 -16 -1 -31 -10 -6 -22 -28 -25 -47 -4
-20 -11 -36 -16 -36 -6 0 -10 -7 -10 -15 0 -8 7 -15 15 -15 9 0 12 -6 8 -17
-4 -10 -2 -14 5 -9 6 3 13 2 16 -3 3 -5 -1 -11 -9 -15 -18 -7 -20 -26 -2 -26
13 0 38 -46 29 -55 -3 -3 -14 -5 -24 -5 -12 0 -18 -7 -17 -22 0 -22 1 -22 10
-3 8 17 9 16 6 -7 -2 -15 1 -29 7 -31 6 -2 1 -2 -11 0 -26 4 -30 -9 -8 -27 8
-7 15 -17 15 -22 0 -5 10 -18 23 -28 l22 -19 -22 6 c-18 4 -23 1 -23 -15 0
-11 -3 -28 -6 -36 -4 -12 -2 -15 9 -10 8 3 18 1 22 -5 3 -6 2 -11 -2 -11 -5 0
-14 -9 -21 -21 -12 -18 -11 -24 10 -47 13 -14 16 -21 8 -16 -8 4 -21 9 -28 10
-10 2 -11 -1 -1 -12 10 -12 8 -17 -7 -28 -10 -8 -16 -18 -12 -22 4 -4 3 -13
-3 -21 -14 -16 7 -47 24 -36 5 3 8 2 6 -3 -10 -19 -28 -60 -39 -91 -7 -19 -17
-30 -23 -26 -6 4 -8 0 -5 -8 3 -8 -3 -30 -12 -49 -48 -92 -70 -158 -32 -97 9
15 20 27 24 27 5 0 8 4 8 9 0 4 23 48 51 97 28 49 55 98 60 109 5 11 25 47 43
80 64 116 326 642 326 656 0 8 9 28 19 45 11 17 33 73 50 124 35 105 40 182
17 268 -17 64 -32 88 -89 144 -24 24 -54 59 -67 78 -13 19 -33 46 -46 60 -23
25 -78 114 -111 180 -10 19 -23 40 -29 47 -6 6 -17 25 -24 42 -7 17 -16 31
-21 31 -5 0 -9 11 -9 25 0 31 -15 33 -17 3z m47 -163 c7 -9 8 -15 2 -15 -5 0
-12 7 -16 15 -3 8 -4 15 -2 15 2 0 9 -7 16 -15z m-50 -65 c0 -5 -5 -10 -11
-10 -5 0 -7 5 -4 10 3 6 8 10 11 10 2 0 4 -4 4 -10z m29 -29 c-15 -5 -22 6
-14 19 6 9 10 9 16 -1 5 -8 4 -15 -2 -18z m-29 -581 c0 -5 -4 -10 -10 -10 -5
0 -10 5 -10 10 0 6 5 10 10 10 6 0 10 -4 10 -10z m-26 -49 c4 -5 -3 -7 -14 -4
-23 6 -26 13 -6 13 8 0 17 -4 20 -9z m-24 -261 c0 -5 -4 -10 -10 -10 -5 0 -10
5 -10 10 0 6 5 10 10 10 6 0 10 -4 10 -10z m230 -104 c0 -3 -4 -8 -10 -11 -5
-3 -10 -1 -10 4 0 6 5 11 10 11 6 0 10 -2 10 -4z m-190 -84 c0 -13 -12 -22
-22 -16 -10 6 -1 24 13 24 5 0 9 -4 9 -8z"/>
<path d="M6895 6250 c-3 -5 -1 -10 4 -10 6 0 11 5 11 10 0 6 -2 10 -4 10 -3 0
-8 -4 -11 -10z"/>
<path d="M9800 6185 c0 -8 7 -15 15 -15 9 0 12 6 9 15 -4 8 -10 15 -15 15 -5
0 -9 -7 -9 -15z"/>
<path d="M5218 6173 c7 -3 16 -2 19 1 4 3 -2 6 -13 5 -11 0 -14 -3 -6 -6z"/>
<path d="M9780 6160 c0 -5 5 -10 11 -10 5 0 7 5 4 10 -3 6 -8 10 -11 10 -2 0
-4 -4 -4 -10z"/>
<path d="M5250 6156 c0 -2 7 -7 16 -10 8 -3 12 -2 9 4 -6 10 -25 14 -25 6z"/>
<path d="M5150 6139 c0 -5 5 -7 10 -4 6 3 10 8 10 11 0 2 -4 4 -10 4 -5 0 -10
-5 -10 -11z"/>
<path d="M9790 6111 c0 -5 5 -13 10 -16 6 -3 10 -2 10 4 0 5 -4 13 -10 16 -5
3 -10 2 -10 -4z"/>
<path d="M9832 6103 c1 -10 -1 -23 -5 -30 -4 -6 -3 -14 3 -18 5 -3 10 1 10 9
0 9 7 16 15 16 8 0 15 5 15 10 0 6 -8 10 -17 10 -15 0 -16 2 -3 10 13 8 12 10
-3 10 -12 0 -17 -6 -15 -17z"/>
<path d="M9710 6080 c0 -5 5 -10 10 -10 6 0 10 5 10 10 0 6 -4 10 -10 10 -5 0
-10 -4 -10 -10z"/>
<path d="M5280 6070 c0 -5 4 -10 9 -10 6 0 13 5 16 10 3 6 -1 10 -9 10 -9 0
-16 -4 -16 -10z"/>
<path d="M9773 6063 c-21 -8 -15 -22 7 -16 11 3 20 9 20 14 0 10 -8 10 -27 2z"/>
<path d="M9685 6050 c3 -5 8 -10 11 -10 2 0 4 5 4 10 0 6 -5 10 -11 10 -5 0
-7 -4 -4 -10z"/>
<path d="M5432 6010 c1 -13 9 -25 16 -28 17 -5 15 16 -4 35 -14 15 -16 14 -12
-7z"/>
<path d="M9747 6019 c-19 -11 -23 -29 -6 -29 15 0 41 28 31 34 -4 2 -15 0 -25
-5z"/>
<path d="M9848 5984 c4 -20 9 -25 31 -22 18 2 27 10 29 26 3 19 -1 22 -31 22
-31 0 -34 -2 -29 -26z"/>
<path d="M5360 5990 c0 -5 5 -10 10 -10 6 0 10 5 10 10 0 6 -4 10 -10 10 -5 0
-10 -4 -10 -10z"/>
<path d="M9695 5960 c3 -5 8 -10 11 -10 2 0 4 5 4 10 0 6 -5 10 -11 10 -5 0
-7 -4 -4 -10z"/>
<path d="M9916 5955 c-3 -9 -16 -12 -44 -8 -34 5 -40 2 -45 -16 -5 -19 -1 -21
40 -21 24 0 42 4 39 9 -3 5 5 12 19 15 28 7 33 21 11 29 -8 3 -17 0 -20 -8z"/>
<path d="M5627 5851 c-18 -7 -18 -8 1 -31 l19 -24 5 32 c5 34 4 35 -25 23z"/>
<path d="M9865 5800 c-3 -5 -1 -10 4 -10 6 0 11 5 11 10 0 6 -2 10 -4 10 -3 0
-8 -4 -11 -10z"/>
<path d="M9770 5779 c0 -5 5 -7 10 -4 6 3 10 8 10 11 0 2 -4 4 -10 4 -5 0 -10
-5 -10 -11z"/>
<path d="M5900 5759 c0 -5 5 -7 10 -4 6 3 10 8 10 11 0 2 -4 4 -10 4 -5 0 -10
-5 -10 -11z"/>
<path d="M6530 5722 c0 -5 7 -13 16 -16 10 -4 14 -1 12 6 -5 15 -28 23 -28 10z"/>
<path d="M9785 5640 c-3 -5 1 -10 9 -10 8 0 18 5 21 10 3 6 -1 10 -9 10 -8 0
-18 -4 -21 -10z"/>
<path d="M9852 5601 c-11 -7 -11 -9 0 -13 18 -7 39 2 32 13 -6 11 -15 11 -32
0z"/>
<path d="M9490 5220 c0 -5 5 -10 10 -10 6 0 10 5 10 10 0 6 -4 10 -10 10 -5 0
-10 -4 -10 -10z"/>
<path d="M9810 4993 c0 -10 4 -14 8 -8 4 6 11 13 16 18 5 4 2 7 -7 7 -10 0
-17 -8 -17 -17z"/>
<path d="M4215 4912 c-16 -2 -34 -9 -40 -15 -5 -7 -23 -14 -38 -15 -34 -2 -74
-32 -107 -79 -32 -45 -65 -82 -193 -213 -56 -58 -109 -118 -118 -135 -44 -79
-59 -275 -74 -900 -6 -251 3 -446 30 -630 18 -127 51 -291 71 -353 8 -25 14
-84 14 -146 l0 -104 54 -46 c30 -25 58 -46 62 -46 4 0 17 -9 29 -20 14 -13 25
-16 35 -10 12 8 12 13 -6 37 -11 15 -30 32 -42 38 -12 5 -20 15 -18 22 3 6 -6
14 -18 17 -13 3 -26 15 -29 26 -5 20 9 26 56 22 9 -1 17 3 17 8 0 10 -2 11
-37 15 -20 2 -53 26 -53 39 0 4 11 4 24 0 23 -5 30 2 38 41 1 6 8 16 15 23 7
7 13 19 13 25 -1 7 -6 6 -13 -4 -10 -13 -47 -33 -47 -26 0 2 10 17 23 34 17
24 25 28 38 20 9 -6 24 -7 34 -3 17 6 16 9 -6 32 l-24 26 25 20 c21 17 22 19
5 16 -28 -4 -26 23 3 33 23 9 32 -5 10 -14 -8 -3 -6 -6 5 -6 11 -1 17 6 17 20
0 15 -5 20 -22 17 -17 -2 -22 1 -20 15 2 9 -1 17 -6 17 -5 0 -9 15 -8 33 2 25
6 32 22 30 15 -1 11 5 -16 28 -27 23 -30 29 -15 27 14 -2 21 4 23 21 2 13 -1
28 -6 33 -6 6 -8 0 -7 -16 4 -32 -7 -33 -39 -2 -33 30 -33 40 -1 32 20 -5 25
-3 25 13 0 11 -9 23 -20 26 -11 4 -17 11 -14 17 4 6 0 15 -7 20 -11 8 -11 11
-1 15 8 3 2 15 -20 34 -18 16 -36 29 -40 29 -18 0 -6 20 11 20 31 0 34 18 4
22 -34 4 -43 28 -11 29 17 1 18 3 6 6 -10 2 -18 9 -18 15 0 5 -7 8 -15 4 -18
-7 -45 2 -45 16 0 5 7 8 16 6 23 -4 29 18 7 26 -11 5 -22 1 -30 -10 -11 -15
-13 -14 -23 10 -5 15 -9 30 -9 34 1 4 0 9 -1 12 -8 18 -15 264 -9 340 2 25 1
66 -3 92 -5 37 -3 52 9 64 13 13 14 19 3 38 -7 15 -9 33 -4 47 4 13 7 32 5 41
-1 10 3 27 9 38 7 14 8 25 2 33 -12 14 -13 117 -2 117 4 0 11 16 15 36 5 30
10 35 27 31 16 -5 18 -3 9 6 -18 18 -13 27 14 27 22 0 24 2 15 26 -8 19 -6 29
5 40 8 9 16 20 16 25 5 34 21 60 34 55 22 -8 43 58 25 80 -8 9 -6 15 7 23 16
9 16 12 3 21 -12 7 -8 10 15 10 29 0 31 2 27 35 -4 36 12 47 35 24 7 -7 13 -7
17 -1 8 13 -3 42 -15 42 -15 0 -10 30 8 48 16 16 16 16 10 -1 -10 -26 2 -40
19 -23 18 19 18 30 -2 47 -14 12 -14 14 2 26 11 8 19 21 19 31 0 9 10 21 23
27 12 5 22 14 22 18 0 13 91 97 105 97 6 0 16 -5 23 -12 9 -9 12 -9 12 0 0 7
-4 12 -10 12 -23 0 -7 28 35 63 25 21 45 32 45 25 0 -9 3 -9 10 2 14 22 12 29
-7 27 -10 -1 -31 -3 -48 -5z m-465 -716 c0 -3 -4 -8 -10 -11 -5 -3 -10 -1 -10
4 0 6 5 11 10 11 6 0 10 -2 10 -4z m-6 -1102 c4 -9 4 -19 1 -22 -3 -3 -5 0 -5
6 0 6 -6 10 -12 8 -7 -1 -10 -1 -5 1 4 3 5 9 1 14 -3 5 -1 9 4 9 6 0 13 -7 16
-16z m66 -75 c0 -16 -26 -10 -45 11 -18 20 -18 20 13 9 18 -6 32 -15 32 -20z
m90 -229 c0 -5 -2 -10 -4 -10 -3 0 -8 5 -11 10 -3 6 -1 10 4 10 6 0 11 -4 11
-10z m-3 -216 c-3 -3 -12 -4 -19 -1 -8 3 -5 6 6 6 11 1 17 -2 13 -5z m-53 -49
c-4 -8 -8 -15 -10 -15 -2 0 -4 7 -4 15 0 8 4 15 10 15 5 0 7 -7 4 -15z"/>
<path d="M4155 4760 c3 -5 8 -10 11 -10 2 0 4 5 4 10 0 6 -5 10 -11 10 -5 0
-7 -4 -4 -10z"/>
<path d="M4210 4760 c0 -5 7 -10 16 -10 8 0 12 5 9 10 -3 6 -10 10 -16 10 -5
0 -9 -4 -9 -10z"/>
<path d="M4127 4749 c7 -7 15 -10 18 -7 3 3 -2 9 -12 12 -14 6 -15 5 -6 -5z"/>
<path d="M4195 4470 c-3 -5 -1 -10 4 -10 6 0 11 5 11 10 0 6 -2 10 -4 10 -3 0
-8 -4 -11 -10z"/>
<path d="M4400 3865 c0 -8 7 -15 15 -15 9 0 12 6 9 15 -4 8 -10 15 -15 15 -5
0 -9 -7 -9 -15z"/>
<path d="M3811 3171 c-10 -18 -9 -21 9 -21 22 0 25 7 11 29 -7 11 -11 9 -20
-8z"/>
<path d="M3841 3053 c-18 -20 -4 -31 15 -11 9 9 12 18 7 21 -4 3 -14 -2 -22
-10z"/>
<path d="M3890 2981 c0 -10 7 -22 16 -25 14 -6 15 -4 4 10 -12 13 -11 17 1 25
11 7 11 9 -3 9 -11 0 -18 -8 -18 -19z"/>
<path d="M3980 2600 c-9 -6 -10 -10 -3 -10 6 0 15 5 18 10 8 12 4 12 -15 0z"/>
<path d="M3955 2480 c-3 -5 -1 -10 4 -10 6 0 11 5 11 10 0 6 -2 10 -4 10 -3 0
-8 -4 -11 -10z"/>
<path d="M7000 2475 c-9 -11 -10 -19 -2 -27 14 -14 32 -1 32 23 0 23 -13 25
-30 4z"/>
<path d="M3880 2440 c0 -5 5 -10 10 -10 6 0 10 5 10 10 0 6 -4 10 -10 10 -5 0
-10 -4 -10 -10z"/>
<path d="M3902 2311 c4 -13 18 -16 19 -4 0 4 -5 9 -11 12 -7 2 -11 -2 -8 -8z"/>
<path d="M3979 2166 c13 -16 64 -19 58 -3 -1 5 -18 11 -36 13 -28 3 -32 2 -22
-10z"/>
<path d="M4030 2140 c-13 -8 -13 -10 1 -10 9 0 24 -9 34 -20 13 -15 22 -17 29
-10 8 8 4 17 -14 30 -29 23 -30 23 -50 10z"/>
<path d="M4125 2050 c3 -5 8 -10 11 -10 2 0 4 5 4 10 0 6 -5 10 -11 10 -5 0
-7 -4 -4 -10z"/>
<path d="M4161 2010 c17 -26 63 -49 75 -37 10 10 -2 20 -26 22 -10 1 -29 10
-42 21 l-22 19 15 -25z"/>
<path d="M4268 1983 c-25 -7 -28 -28 -4 -29 15 -1 22 4 22 17 0 11 0 18 -1 18
0 -1 -7 -3 -17 -6z"/>
</g>
</svg>
